<svg width="116" height="131" viewBox="0 0 116 131" fill="none" xmlns="http://www.w3.org/2000/svg">
<path opacity="0.996" fill-rule="evenodd" clip-rule="evenodd" d="M61.4055 74.112C61.2154 74.1601 61.0246 74.2086 60.8331 74.2576C60.5481 74.2013 60.2619 74.1528 59.9746 74.112C57.4018 73.6453 54.8453 73.1193 52.3051 72.5352C48.578 71.5701 45.0294 70.2601 41.6593 68.6052C37.5367 66.6237 33.6638 64.3433 30.0405 61.7641C27.3576 59.8146 25.0968 57.5745 23.2581 55.0443C21.5252 52.3675 20.495 49.5049 20.1674 46.4565C19.8023 44.2319 20.0694 42.0648 20.9687 39.955C21.5204 38.5017 22.3408 37.1755 23.4298 35.9765C25.0111 34.3488 26.9094 33.063 29.1247 32.1193C33.0573 30.8129 37.0256 30.732 41.0297 31.8767C42.4424 32.354 43.7779 32.9444 45.0362 33.6476C45.1154 33.6997 45.1822 33.7644 45.2365 33.8417C46.9117 36.779 48.2663 39.8195 49.3002 42.9631C49.7858 44.5452 50.2533 46.1301 50.7025 47.718C48.6663 46.8509 46.5104 46.5032 44.2349 46.6748C40.0875 47.0692 37.7313 49.0183 37.1663 52.5213C36.9592 56.5236 38.4091 60.0169 41.5162 63.0013C43.1727 64.5359 45.0328 65.8537 47.0966 66.9556C51.2638 69.2471 55.7663 70.8885 60.6042 71.8802C68.6567 70.0564 75.0579 66.2559 79.8067 60.4783C82.0303 57.6948 83.6518 54.6702 84.6717 51.4054C85.6081 48.6728 85.6842 45.9233 84.9006 43.1572C84.3586 41.5013 83.357 40.0862 81.8958 38.9119C79.8221 37.5969 77.4949 36.7882 74.9131 36.4859C71.6575 36.3832 68.6813 37.0948 65.9843 38.6207C63.3526 40.3981 61.3209 42.5734 59.8888 45.1465C59.3645 46.1479 58.8589 47.1506 58.372 48.1546C58.3765 48.0202 58.3479 47.8908 58.2862 47.7665C57.2499 45.6649 56.315 43.53 55.4816 41.362C54.5391 38.0723 53.9 34.7407 53.5642 31.3672C56.2068 28.2623 59.5837 25.9092 63.6949 24.3078C65.3233 23.7308 67.0214 23.4074 68.7889 23.3374C75.3166 22.8318 81.0596 24.3682 86.0167 27.9467C87.1752 28.8375 88.1196 29.8645 88.8499 31.0276C90.3329 33.3597 91.3247 35.8342 91.8261 38.4509C92.1461 41.3407 92.0316 44.2195 91.4827 47.0872C90.6803 50.8275 89.0393 54.2723 86.5605 57.4217C84.7736 59.7467 82.6845 61.8732 80.2932 63.8019C76.3691 66.9677 72.057 69.6847 67.358 71.953C65.4326 72.7933 63.4482 73.5133 61.4055 74.112Z" fill="#F47976"/>
<path opacity="0.952" fill-rule="evenodd" clip-rule="evenodd" d="M46.3525 34.5694C47.3692 36.5363 48.2754 38.5417 49.0712 40.5857C49.9374 43.0707 50.7101 45.5613 51.3893 48.0576C51.1395 47.9681 50.9105 47.8549 50.7024 47.718C50.2533 46.1301 49.7858 44.5452 49.3002 42.9631C48.2663 39.8195 46.9117 36.779 45.2365 33.8417C45.1821 33.7644 45.1154 33.6997 45.0361 33.6476C43.8263 31.7905 42.529 29.9791 41.1441 28.2135C40.5368 28.2123 39.9263 28.2042 39.3126 28.1893C38.592 28.1386 37.9911 27.8879 37.5097 27.4372C37.1044 26.6967 37.362 26.2034 38.2823 25.9574C38.6155 25.9113 38.9398 25.9356 39.2553 26.0302C39.3282 25.5408 39.6144 25.1769 40.1139 24.9385C40.581 24.7902 40.9721 24.8792 41.2872 25.2054C41.4395 25.4147 41.5349 25.6411 41.5734 25.8846C41.6213 26.4687 41.6022 27.051 41.5161 27.6313C41.4895 27.7007 41.4418 27.7573 41.3731 27.8011C43.2126 29.9566 44.8724 32.2128 46.3525 34.5694Z" fill="#FA9F8F"/>
<path opacity="0.966" fill-rule="evenodd" clip-rule="evenodd" d="M53.5643 31.3672C53.9 34.7407 54.5391 38.0723 55.4816 41.362C56.315 43.53 57.2499 45.6649 58.2862 47.7665C58.3479 47.8908 58.3766 48.0202 58.372 48.1546C58.2979 48.3603 58.2025 48.5544 58.0859 48.7369C56.7392 46.0807 55.6231 43.3475 54.7376 40.5372C54.0193 37.6771 53.4947 34.7983 53.1636 31.9009C53.0985 31.2074 53.0412 30.5119 52.9919 29.8146C51.9298 29.2948 51.2812 28.5266 51.0459 27.51C51.2117 26.6413 51.8031 26.2855 52.8202 26.4426C53.0946 26.6248 53.2759 26.8593 53.3639 27.1461C53.5729 26.7826 53.9068 26.5561 54.3656 26.4669C55.024 26.6425 55.3483 27.0306 55.3386 27.6313C55.3364 27.8712 55.2697 28.0976 55.1382 28.3106C54.6634 28.8667 54.1197 29.368 53.507 29.8146C53.488 29.8793 53.4688 29.944 53.4498 30.0087C53.4922 30.4615 53.5303 30.9144 53.5643 31.3672Z" fill="#FA9F8F"/>
<path opacity="0.996" fill-rule="evenodd" clip-rule="evenodd" d="M53.1636 31.9009C53.4947 34.7983 54.0193 37.6771 54.7375 40.5372C55.623 43.3475 56.7391 46.0807 58.0858 48.7369C57.6732 49.6791 57.2439 50.6174 56.798 51.5509C55.0984 50.2628 53.2955 49.0983 51.3893 48.0576C50.7101 45.5613 49.9374 43.0707 49.0712 40.5858C48.2754 38.5417 47.3692 36.5363 46.3525 34.5695C47.4717 35.3398 48.5591 36.1484 49.615 36.9954C50.3495 35.8795 51.084 34.7635 51.8185 33.6476C52.2365 33.0438 52.6848 32.4616 53.1636 31.9009Z" fill="#F57A77"/>
<path fill-rule="evenodd" clip-rule="evenodd" d="M40.629 36.3646C41.3591 36.3062 41.8647 36.565 42.1457 37.1409C42.3334 37.8796 42.1999 38.575 41.7451 39.2272C41.5789 39.384 41.4358 39.5539 41.3158 39.7367C41.9999 40.678 42.6772 41.6241 43.3477 42.575C44.1291 43.8836 44.8636 45.2098 45.5512 46.5535C45.3255 46.6016 45.0965 46.6178 44.8644 46.602C43.8012 44.2495 42.4942 42.0015 40.9438 39.858C39.799 39.7852 38.826 39.397 38.0248 38.6935C37.7439 38.2861 37.7058 37.8656 37.9103 37.432C38.2148 37.1571 38.5868 37.0681 39.0264 37.1652C39.3582 37.2184 39.6635 37.3236 39.9422 37.4806C39.9493 36.9991 40.1782 36.6271 40.629 36.3646Z" fill="#FA9F8F"/>
<path fill-rule="evenodd" clip-rule="evenodd" d="M50.7024 47.718C50.9106 47.8549 51.1395 47.9681 51.3893 48.0576C53.2955 49.0983 55.0984 50.2628 56.798 51.5509C57.2439 50.6174 57.6732 49.6791 58.0858 48.7368C58.2025 48.5544 58.2978 48.3603 58.372 48.1546C58.8588 47.1506 59.3645 46.1479 59.8887 45.1465C61.3209 42.5733 63.3526 40.3981 65.9843 38.6207C68.6812 37.0948 71.6575 36.3832 74.913 36.4859C77.4949 36.7882 79.8221 37.5969 81.8958 38.9118C83.357 40.0862 84.3586 41.5013 84.9006 43.1572C85.6842 45.9233 85.608 48.6728 84.6717 51.4054C83.6517 54.6702 82.0303 57.6948 79.8067 60.4783C75.0578 66.2559 68.6566 70.0564 60.6042 71.8802C55.7663 70.8885 51.2638 69.2471 47.0966 66.9556C45.0328 65.8537 43.1727 64.5359 41.5162 63.0013C38.4091 60.0169 36.9591 56.5236 37.1663 52.5213C37.7312 49.0183 40.0875 47.0692 44.2348 46.6748C46.5104 46.5032 48.6662 46.8509 50.7024 47.718Z" fill="#F33B3B"/>
<path opacity="0.952" fill-rule="evenodd" clip-rule="evenodd" d="M59.9746 74.112C60.2619 74.1528 60.5481 74.2013 60.8331 74.2576C61.0246 74.2086 61.2154 74.1601 61.4055 74.112C61.8305 78.2458 62.1453 82.3864 62.3499 86.5328C62.6172 85.6754 62.9411 84.8346 63.3229 84.0098C63.9479 82.8691 64.5872 81.7372 65.2403 80.6135C65.4515 80.7125 65.6615 80.8095 65.8699 80.9046C64.7057 82.643 63.838 84.4867 63.2656 86.4357C62.9697 87.4061 62.6744 88.3765 62.3785 89.3468C62.5233 93.4268 62.4088 97.5023 62.0351 101.574C61.635 102.567 61.2629 103.57 60.919 104.582C60.6286 105.549 60.4093 106.528 60.2608 107.517C60.3392 107.879 60.5395 107.952 60.8618 107.735C61.0771 107.276 61.2965 106.823 61.52 106.377C61.3548 108.13 61.1163 109.877 60.8045 111.617C60.6773 111.806 60.4961 111.943 60.2608 112.029C59.992 112.043 59.7249 112.067 59.4595 112.102C59.0682 112.021 58.906 111.811 58.973 111.471C59.2461 110.443 59.475 109.408 59.6598 108.366C59.8939 106.701 60.1133 105.035 60.318 103.369C60.5078 103.449 60.6986 103.53 60.8904 103.611C61.0846 103.573 61.1609 103.468 61.1193 103.296C61.1197 103.184 61.091 103.079 61.0335 102.981C60.7986 102.806 60.5982 102.612 60.4325 102.398C60.7609 99.5745 60.9422 96.7445 60.9762 93.9076C60.4459 92.6194 59.6256 91.4875 58.5151 90.5113C57.9771 90.031 57.4143 89.5778 56.8267 89.1528C56.9771 88.9606 57.1488 88.7826 57.3418 88.6191C58.7344 89.5006 59.9459 90.5355 60.9762 91.7243C60.9145 85.8424 60.5807 79.9716 59.9746 74.112Z" fill="#676F54"/>
<path opacity="0.98" fill-rule="evenodd" clip-rule="evenodd" d="M65.8699 80.9046C65.6616 80.8095 65.4515 80.7125 65.2403 80.6135C65.0085 80.4738 64.8271 80.2957 64.6966 80.0798C63.6915 78.5491 63.482 76.948 64.067 75.2765C64.4499 74.5118 65.127 74.1965 66.0988 74.3304C66.8549 74.5021 67.3798 74.8985 67.6728 75.5191C67.7495 75.7136 67.8256 75.9077 67.9018 76.1013C68.5886 75.7151 69.3418 75.5778 70.1626 75.6889C71.1739 75.8912 71.689 76.4332 71.7079 77.3143C71.5557 78.4535 70.9261 79.3511 69.8191 80.007C68.6224 80.6931 67.3059 80.9925 65.8699 80.9046Z" fill="#F23B3B"/>
<path opacity="0.99" fill-rule="evenodd" clip-rule="evenodd" d="M63.6949 101.04C64.1202 99.9787 64.6261 98.9433 65.2117 97.9346C65.7394 97.4873 66.2642 97.0424 66.7856 96.6004C67.3574 96.2142 67.987 95.9066 68.6744 95.6785C69.814 95.4413 70.9398 95.1662 72.0513 94.8537C73.3305 94.4544 74.5519 93.9532 75.7144 93.3496C76.0131 93.1206 76.2804 92.8698 76.5157 92.5976C76.4968 92.5816 76.4773 92.5651 76.4584 92.5491C75.8718 92.7655 75.3183 93.0323 74.7986 93.3496C74.3287 93.5568 73.8519 93.7509 73.3677 93.9319C72.1646 94.288 70.9432 94.5951 69.7046 94.8537C68.3922 95.1953 67.2 95.7212 66.1274 96.4306C66.7616 95.1541 67.5532 93.9489 68.5027 92.8159C69.561 92.0654 70.7252 91.4506 71.9941 90.9722C72.8446 90.7102 73.7031 90.4676 74.5697 90.2445C76.5265 89.8054 78.4725 89.3367 80.4077 88.8374C81.3206 88.5963 82.0457 88.1436 82.5826 87.4789C82.4292 87.4896 82.2764 87.5221 82.1247 87.5759C81.4923 87.9976 80.7866 88.3052 80.007 88.4978C77.4898 89.0431 74.9903 89.6419 72.5092 90.293C71.4389 90.5948 70.4373 91.0072 69.5043 91.5302C69.5066 91.4438 69.545 91.3628 69.6188 91.2876C71.013 89.7011 72.4725 88.1567 73.9973 86.6541C74.6401 86.3863 75.3074 86.1762 76.0005 86.0234C79.8302 86.0685 82.0812 84.4916 82.7543 81.2928C82.7154 81.1162 82.6868 80.9386 82.6685 80.7591C82.4143 81.2758 82.2043 81.8095 82.0389 82.3602C81.6108 83.4989 80.7997 84.3805 79.6064 85.0045C79.0821 85.2281 78.5292 85.3737 77.9465 85.4411C76.89 85.463 75.8597 85.592 74.8558 85.8293C75.9336 84.6566 77.0119 83.4844 78.0896 82.3117C78.1177 82.2326 78.1274 82.1516 78.1183 82.0691C78.021 82.0613 77.9254 82.0696 77.8321 82.0934C76.6759 83.1219 75.5409 84.1651 74.4266 85.2228C74.5078 84.0821 74.7557 82.9662 75.1706 81.875C75.775 80.5699 76.8533 79.6723 78.4044 79.1822C78.5189 79.0852 78.6334 78.9882 78.7478 78.8911C78.5761 78.8586 78.4044 78.8586 78.2327 78.8911C76.3228 79.5073 75.0922 80.6475 74.541 82.3117C74.2005 83.498 73.9338 84.6944 73.7397 85.9021C72.5567 86.9695 71.3742 88.0369 70.1911 89.1043C69.7493 89.5594 69.3298 90.0286 68.932 90.5113C69.1558 89.5303 69.3658 88.5439 69.5616 87.5517C69.6766 86.5284 69.8294 85.5095 70.0194 84.495C70.2862 83.4281 70.744 82.4257 71.3931 81.4869C71.4337 81.3205 71.4721 81.1589 71.5076 81.0017C70.9341 81.4888 70.4951 82.055 70.1911 82.6998C69.5793 84.1927 69.217 85.7288 69.1037 87.3091C68.8255 88.7889 68.4249 90.2445 67.9017 91.6758C67.0249 92.7359 66.2522 93.8518 65.5837 95.0235C65.527 94.6441 65.5076 94.256 65.5265 93.8591C65.7039 91.9154 66.2665 90.0552 67.2149 88.2795C67.2561 88.1009 67.275 87.9233 67.2721 87.7458C67.1714 87.868 67.0569 87.9811 66.9287 88.0854C65.6215 90.3347 64.9535 92.7121 64.9255 95.2176C64.7961 95.9303 64.5867 96.6261 64.2959 97.3039C63.7676 98.2641 63.2428 99.218 62.7219 100.166C62.7969 99.3815 62.94 98.6052 63.1512 97.8376C64.0572 94.3603 65.2214 90.948 66.6426 87.6002C67.7729 85.069 69.2038 82.6756 70.9352 80.4195C72.2705 78.7048 74.0545 77.4516 76.2867 76.6593C77.7405 76.2415 79.0088 76.4924 80.0929 77.4113C80.6143 78.1022 80.719 78.8382 80.4077 79.6189C80.9972 79.42 81.6073 79.2584 82.2392 79.1337C83.618 78.878 84.8108 79.1609 85.8164 79.9828C86.9594 81.4151 87.1883 82.9512 86.5032 84.5921C86.1472 85.4547 85.6699 86.2635 85.0724 87.018C84.085 88.2115 82.969 89.3192 81.7241 90.3415C79.101 92.3545 76.2392 94.0847 73.1388 95.533C71.8704 96.0531 70.5918 96.5543 69.304 97.0371C67.4135 97.8468 65.859 98.987 64.6393 100.458C64.3932 100.74 64.0784 100.934 63.6949 101.04Z" fill="#F47976"/>
<path opacity="0.995" fill-rule="evenodd" clip-rule="evenodd" d="M63.6949 101.04C62.9577 102.819 62.2324 104.597 61.5199 106.377C61.2964 106.823 61.077 107.276 60.8617 107.735C60.5395 107.952 60.3392 107.879 60.2607 107.517C60.4092 106.528 60.6286 105.549 60.9189 104.582C61.2629 103.57 61.6349 102.567 62.035 101.574C62.2852 101.116 62.5141 100.647 62.7219 100.166C63.2427 99.2179 63.7676 98.2641 64.2958 97.3039C64.5866 96.6261 64.7961 95.9303 64.9254 95.2176C64.9535 92.7121 65.6214 90.3347 66.9287 88.0854C67.0569 87.9811 67.1713 87.868 67.2721 87.7457C67.2749 87.9233 67.2561 88.1009 67.2148 88.2794C66.2665 90.0552 65.7038 91.9154 65.5264 93.8591C65.46 94.287 65.4508 94.7237 65.4978 95.1691C65.527 95.1191 65.5556 95.0706 65.5836 95.0235C66.2521 93.8518 67.0248 92.7359 67.9017 91.6757C68.4248 90.2444 68.8254 88.7889 69.1036 87.3091C69.2169 85.7288 69.5792 84.1927 70.1911 82.6998C70.495 82.055 70.934 81.4888 71.5075 81.0017C71.472 81.1589 71.4337 81.3204 71.393 81.4869C70.744 82.4257 70.2861 83.4281 70.0194 84.495C69.8294 85.5095 69.6765 86.5284 69.5615 87.5517C69.3658 88.5439 69.1557 89.5303 68.9319 90.5113C69.3297 90.0285 69.7492 89.5594 70.1911 89.1043C71.3741 88.0369 72.5566 86.9694 73.7397 85.902C73.9337 84.6944 74.2004 83.4979 74.541 82.3117C75.0922 80.6475 76.3227 79.5073 78.2327 78.8911C78.4044 78.8586 78.5761 78.8586 78.7478 78.8911C78.6333 78.9881 78.5188 79.0852 78.4044 79.1822C76.8533 79.6723 75.775 80.5699 75.1706 81.875C74.7556 82.9662 74.5078 84.0821 74.4265 85.2228C75.5409 84.1651 76.6759 83.1219 77.832 82.0933C77.9253 82.0696 78.0209 82.0613 78.1182 82.0691C78.1273 82.1516 78.1176 82.2326 78.0896 82.3117C77.0118 83.4844 75.9335 84.6566 74.8558 85.8293C75.8597 85.592 76.8899 85.4629 77.9465 85.4411C78.5291 85.3737 79.082 85.2281 79.6063 85.0044C80.7997 84.3805 81.6107 83.4989 82.0388 82.3602C82.2042 81.8095 82.4143 81.2758 82.6684 80.7591C82.6867 80.9386 82.7153 81.1162 82.7543 81.2928C82.0812 84.4916 79.8301 86.0685 76.0005 86.0233C75.3074 86.1762 74.64 86.3863 73.9972 86.6541C72.4725 88.1567 71.013 89.701 69.6187 91.2876C69.5449 91.3628 69.5066 91.4438 69.5043 91.5302C70.4372 91.0072 71.4388 90.5947 72.5091 90.293C74.9903 89.6418 77.4897 89.0431 80.007 88.4978C80.7865 88.3052 81.4922 87.9976 82.1247 87.5759C82.2763 87.5221 82.4292 87.4896 82.5826 87.4789C82.0457 88.1436 81.3205 88.5963 80.4076 88.8374C78.4725 89.3367 76.5265 89.8054 74.5696 90.2444C73.7031 90.4676 72.8445 90.7102 71.994 90.9722C70.7251 91.4506 69.5609 92.0653 68.5026 92.8159C67.5531 93.9488 66.7615 95.154 66.1274 96.4306C67.2 95.7212 68.3922 95.1953 69.7046 94.8537C70.9432 94.5951 72.1646 94.288 73.3677 93.9319C73.8519 93.7509 74.3286 93.5568 74.7985 93.3496C75.3182 93.0323 75.8717 92.7655 76.4584 92.5491C76.4773 92.5651 76.4967 92.5816 76.5156 92.5976C76.2804 92.8698 76.0131 93.1206 75.7143 93.3496C74.5519 93.9532 73.3304 94.4544 72.0512 94.8537C70.9397 95.1662 69.8139 95.4413 68.6743 95.6785C67.987 95.9066 67.3574 96.2142 66.7856 96.6004C66.2642 97.0424 65.7393 97.4873 65.2116 97.9346C64.6261 98.9433 64.1201 99.9787 63.6949 101.04Z" fill="#6C7156"/>
<path opacity="0.98" fill-rule="evenodd" clip-rule="evenodd" d="M57.3418 88.6191C57.1489 88.7826 56.9772 88.9607 56.8267 89.1528C55.9822 89.5405 55.076 89.702 54.108 89.638C52.7935 89.7001 51.5629 89.4652 50.4163 88.9345C49.2269 88.1611 49.0075 87.2315 49.7581 86.1446C50.5101 85.4251 51.4355 85.1825 52.534 85.4169C52.3247 84.4048 52.649 83.5397 53.507 82.8211C54.6947 82.4233 55.6772 82.6581 56.4547 83.5246C57.3329 84.9176 57.7144 86.4057 57.5994 87.9883C57.5415 88.2086 57.4556 88.4187 57.3418 88.6191Z" fill="#F23B3B"/>
<path opacity="0.988" fill-rule="evenodd" clip-rule="evenodd" d="M59.0016 101.574C58.1696 101.164 57.3111 100.792 56.426 100.458C55.8779 99.544 55.2579 98.6706 54.5658 97.8376C54.1516 97.3393 53.6269 96.9754 52.9919 96.7459C53.5043 97.2995 54.01 97.8575 54.5086 98.4198C54.9047 98.9618 55.2385 99.528 55.5102 100.118C54.1504 99.7041 52.7577 99.3727 51.332 99.1233C50.544 98.8584 49.8858 98.446 49.3574 97.8861C48.7479 97.12 48.0896 96.384 47.3828 95.6785C46.8047 95.219 46.1274 94.9202 45.3509 94.7809C45.3223 94.7892 45.2937 94.7969 45.2651 94.8052C45.655 95.1079 46.0938 95.3505 46.5815 95.533C46.8635 95.7295 47.1401 95.9318 47.4114 96.1394C47.9217 96.7619 48.4177 97.3927 48.8995 98.0317C49.1953 98.347 49.5291 98.6299 49.9011 98.8807C48.425 98.7987 46.9464 98.726 45.4654 98.6624C45.1856 98.6629 44.9089 98.6871 44.6355 98.7352C44.8989 98.8259 45.1659 98.9064 45.4368 98.9778C46.9429 99.1262 48.4501 99.2718 49.9584 99.4144C48.7447 100.168 47.5809 100.977 46.467 101.84C45.2257 102.656 43.8139 103.029 42.2316 102.956C42.1006 102.996 41.9671 103.029 41.831 103.053C43.4568 103.408 44.964 103.182 46.3526 102.374C47.4973 101.598 48.642 100.821 49.7867 100.045C50.1108 99.8356 50.4638 99.6658 50.8455 99.5357C52.2761 99.8351 53.6783 100.207 55.0523 100.652C53.8641 100.892 52.8147 101.353 51.9044 102.034C51.7449 102.188 51.6305 102.341 51.561 102.495C51.7259 102.425 51.8976 102.368 52.0761 102.326C52.9616 101.74 53.9538 101.336 55.0523 101.113C55.7647 101.069 56.4515 101.166 57.1128 101.404C57.5228 101.586 57.9234 101.78 58.3148 101.986C58.4603 102.053 58.5748 102.142 58.6582 102.253C58.3745 102.444 58.0502 102.565 57.6852 102.617C56.5789 102.649 55.4724 102.681 54.3655 102.714C53.0914 102.847 51.8703 103.138 50.7024 103.587C49.4582 104.213 48.1418 104.699 46.7532 105.043C44.8604 105.437 42.9907 105.372 41.1441 104.849C39.9457 104.366 39.2493 103.565 39.055 102.447C38.8395 100.624 39.7266 99.3543 41.7165 98.6381C42.1458 98.5207 42.5846 98.4402 43.0329 98.3955C41.6739 97.318 41.4926 96.1132 42.4892 94.7809C43.2229 94.1099 44.1291 93.714 45.2078 93.5922C46.5687 93.4399 47.8851 93.5854 49.1571 94.0289C51.0371 94.6475 52.7542 95.4883 54.3083 96.5518C55.9512 97.7663 57.4107 99.1165 58.6868 100.603C58.9168 100.898 59.0217 101.221 59.0016 101.574Z" fill="#F47976"/>
<path fill-rule="evenodd" clip-rule="evenodd" d="M65.5265 93.8591C65.5076 94.256 65.5271 94.6441 65.5837 95.0235C65.5557 95.0706 65.5271 95.1191 65.4979 95.1691C65.4509 94.7237 65.4601 94.287 65.5265 93.8591Z" fill="#C1776A"/>
<path opacity="0.991" fill-rule="evenodd" clip-rule="evenodd" d="M59.0016 101.574C59.4942 101.83 59.9712 102.104 60.4324 102.398C60.5982 102.612 60.7985 102.806 61.0334 102.981C61.091 103.079 61.1196 103.184 61.1193 103.296C61.1609 103.468 61.0846 103.573 60.8903 103.611C60.6986 103.53 60.5078 103.449 60.318 103.369C59.7812 102.978 59.2279 102.606 58.6581 102.253C58.5748 102.142 58.4603 102.053 58.3147 101.986C57.9234 101.78 57.5228 101.586 57.1128 101.404C56.4515 101.166 55.7647 101.069 55.0523 101.113C53.9537 101.336 52.9616 101.74 52.0761 102.326C51.8976 102.368 51.7259 102.425 51.561 102.495C51.6304 102.341 51.7449 102.188 51.9044 102.034C52.8147 101.353 53.8641 100.892 55.0523 100.652C53.6783 100.207 52.2761 99.8351 50.8455 99.5358C50.4638 99.6658 50.1108 99.8356 49.7867 100.045C48.6419 100.822 47.4972 101.598 46.3525 102.374C44.964 103.182 43.4568 103.409 41.8309 103.053C41.967 103.029 42.1006 102.996 42.2316 102.956C43.8139 103.029 45.2257 102.656 46.467 101.84C47.5809 100.977 48.7447 100.168 49.9584 99.4145C48.4501 99.2718 46.9429 99.1263 45.4368 98.9778C45.1659 98.9065 44.8989 98.8259 44.6355 98.7352C44.9089 98.6872 45.1856 98.6629 45.4654 98.6624C46.9464 98.726 48.425 98.7988 49.9011 98.8808C49.5291 98.6299 49.1952 98.3471 48.8995 98.0317C48.4176 97.3927 47.9216 96.762 47.4114 96.1395C47.1401 95.9318 46.8635 95.7295 46.5815 95.533C46.0938 95.3506 45.655 95.108 45.2651 94.8052C45.2937 94.797 45.3223 94.7892 45.3509 94.7809C46.1274 94.9202 46.8047 95.2191 47.3828 95.6785C48.0896 96.384 48.7478 97.12 49.3574 97.8861C49.8858 98.446 50.544 98.8584 51.332 99.1234C52.7577 99.3727 54.1504 99.7041 55.5102 100.118C55.2385 99.528 54.9046 98.9618 54.5086 98.4198C54.0099 97.8575 53.5043 97.2995 52.9918 96.7459C53.6269 96.9754 54.1516 97.3393 54.5658 97.8376C55.2578 98.6707 55.8779 99.544 56.426 100.458C57.3111 100.792 58.1696 101.164 59.0016 101.574Z" fill="#6D7156"/>
<g filter="url(#filter0_d_601_1985)">
<path d="M65.9062 48.1562C65.9062 49.2188 65.2292 50.5 63.875 52C62.5208 53.5 60.8438 54.9271 58.8438 56.2812C56.8646 57.6354 54.8958 58.7083 52.9375 59.5C53.375 59.3542 53.8229 59.2812 54.2812 59.2812C55.8229 59.2812 56.8438 59.5625 57.3438 60.125C57.4688 60.25 57.5312 60.3958 57.5312 60.5625C57.5312 60.7292 57.25 61.1354 56.6875 61.7812C50.8333 68.5521 45.4583 75.2708 40.5625 81.9375C42.5625 80.375 44.3333 78.8854 45.875 77.4688C46.7292 76.6979 47.7708 76.3125 49 76.3125C49.8958 76.3125 50.4479 76.4271 50.6562 76.6562C50.8646 76.8854 50.9688 77.0833 50.9688 77.25C50.9688 77.3958 50.8333 77.5729 50.5625 77.7812C47.0833 80.8229 41.4062 85.2604 33.5312 91.0938C32.1771 92.6146 28.7604 96.2396 23.2812 101.969C22.3021 102.969 21.2188 103.469 20.0312 103.469C17.7188 103.469 16.5625 102.823 16.5625 101.531C16.5625 100.969 17.0104 100.073 17.9062 98.8438C19.1979 96.9479 22.3542 94.0833 27.375 90.25C28.4792 89.0208 30.3854 86.9375 33.0938 84C38.2188 78.4167 41.3125 74.8333 42.375 73.25C39.5417 75.9375 37.3958 77.8333 35.9375 78.9375C34.4792 80.0417 33.125 81 31.875 81.8125C30.6458 82.625 29.5104 83.2812 28.4688 83.7812C23.4271 86.1979 19.8333 86.2083 17.6875 83.8125C16.6042 82.625 16.0625 80.8854 16.0625 78.5938C16.0625 76.2812 16.6979 73.7396 17.9688 70.9688C19.2396 68.1979 20.9375 65.4688 23.0625 62.7812C25.1875 60.0729 27.7083 57.4375 30.625 54.875C33.5417 52.3125 36.5729 50.0625 39.7188 48.125C42.8646 46.1875 46.1771 44.6354 49.6562 43.4688C53.1354 42.2812 56.4167 41.6875 59.5 41.6875C60.5625 41.6875 61.5625 41.8646 62.5 42.2188C63.4375 42.5729 64.1042 42.9479 64.5 43.3438C65.4375 44.2812 65.9062 45.8854 65.9062 48.1562ZM47.8438 54.6875L47.6875 55.3125C47.6875 55.6667 47.9271 55.8438 48.4062 55.8438C49.6771 55.8438 51.4167 55.2292 53.625 54C55.8333 52.7708 57.6146 51.5104 58.9688 50.2188C60.3229 48.9271 61 47.8542 61 47C61 46.2708 60.3542 45.9062 59.0625 45.9062C56.7708 45.9062 54.1875 46.4688 51.3125 47.5938C48.4583 48.7188 45.6667 50.1771 42.9375 51.9688C40.2083 53.7604 37.5208 55.8229 34.875 58.1562C32.2292 60.4688 29.9167 62.7917 27.9375 65.125C25.9792 67.4375 24.3958 69.7083 23.1875 71.9375C21.9792 74.1667 21.375 76.0729 21.375 77.6562C21.375 78.2812 21.5521 78.8333 21.9062 79.3125C22.2812 79.7917 22.8229 80.0312 23.5312 80.0312C25.7188 80.0312 29.2396 78.3542 34.0938 75C38.9688 71.6458 44.5625 67.0729 50.875 61.2812C50.9583 61.1979 51.1042 61.0417 51.3125 60.8125C51.7708 60.25 52.2396 59.8438 52.7188 59.5938C51.0104 60.2812 49.6146 60.625 48.5312 60.625C47.4479 60.625 46.5521 60.3854 45.8438 59.9062C45.1354 59.4271 44.7812 58.7812 44.7812 57.9688C44.7812 57.1354 45.1458 56.3542 45.875 55.625C46.6042 54.8958 47.1146 54.5312 47.4062 54.5312C47.6979 54.5312 47.8438 54.5833 47.8438 54.6875ZM68.1562 56.375L67.5 56.2812H67.375C66.8542 56.2812 66.3125 56.0729 65.75 55.6562C65.2083 55.2396 64.9375 54.5 64.9375 53.4375C64.9375 52.375 65.5104 51.1667 66.6562 49.8125C67.8229 48.4583 69.3958 47.2188 71.375 46.0938C73.3542 44.9479 75.8125 44.0104 78.75 43.2812C81.7083 42.5521 84.8229 42.1875 88.0938 42.1875C94.7812 42.1875 100 43.5104 103.75 46.1562C107.521 48.7812 109.406 52.1979 109.406 56.4062C109.406 59.0312 108.823 61.6562 107.656 64.2812C106.49 66.9062 104.927 69.3333 102.969 71.5625C101.01 73.7708 98.7083 75.8438 96.0625 77.7812C93.4167 79.6979 90.6458 81.3333 87.75 82.6875C81.5 85.5625 75.5208 87 69.8125 87C67 87 65.2292 86.7708 64.5 86.3125C64.2292 86.1667 63.9583 85.9479 63.6875 85.6562C63.4375 85.3438 63.2396 85.1354 63.0938 85.0312C62.6979 84.7812 62.5 84.25 62.5 83.4375C62.5 82.6042 62.5833 81.8542 62.75 81.1875C63.375 78.9583 66.1771 74.125 71.1562 66.6875C76.1562 59.2292 80.3333 53.2188 83.6875 48.6562C83.9167 48.3438 85.0938 48.1146 87.2188 47.9688C88.0938 47.9688 88.6979 48.0312 89.0312 48.1562C89.3646 48.2812 89.5312 48.5104 89.5312 48.8438C89.5312 49.1562 88.9896 50.0729 87.9062 51.5938C86.8229 53.0938 83.3438 58.375 77.4688 67.4375C71.5938 76.4792 68.6562 81.125 68.6562 81.375C68.6562 81.625 69.5729 81.75 71.4062 81.75C73.2604 81.75 75.5312 81.3646 78.2188 80.5938C80.9271 79.8021 83.4688 78.7708 85.8438 77.5C88.2188 76.2292 90.4896 74.7604 92.6562 73.0938C94.8229 71.4062 96.6771 69.6875 98.2188 67.9375C101.594 64.1042 103.281 60.6979 103.281 57.7188C103.281 54.7396 101.917 52.2083 99.1875 50.125C96.4792 48.0417 92.7604 47 88.0312 47C84.8438 47 81.8333 47.5312 79 48.5938C76.1667 49.6562 74.2188 50.6042 73.1562 51.4375C72.0938 52.2708 71.5625 52.8333 71.5625 53.125C71.5625 53.2917 71.6875 53.375 71.9375 53.375L73.2812 53.125C73.4688 53.125 73.5625 53.1667 73.5625 53.25C73.5625 53.3333 73.3854 53.4792 73.0312 53.6875C72.6771 53.8958 72.3854 54.125 72.1562 54.375C71.9479 54.6042 71.4062 54.9896 70.5312 55.5312C69.6562 56.0521 68.8646 56.3333 68.1562 56.375Z" fill="white"/>
</g>
<defs>
<filter id="filter0_d_601_1985" x="12.0625" y="41.6875" width="101.344" height="69.7812" filterUnits="userSpaceOnUse" color-interpolation-filters="sRGB">
<feFlood flood-opacity="0" result="BackgroundImageFix"/>
<feColorMatrix in="SourceAlpha" type="matrix" values="0 0 0 0 0 0 0 0 0 0 0 0 0 0 0 0 0 0 127 0" result="hardAlpha"/>
<feOffset dy="4"/>
<feGaussianBlur stdDeviation="2"/>
<feComposite in2="hardAlpha" operator="out"/>
<feColorMatrix type="matrix" values="0 0 0 0 0 0 0 0 0 0 0 0 0 0 0 0 0 0 0.25 0"/>
<feBlend mode="normal" in2="BackgroundImageFix" result="effect1_dropShadow_601_1985"/>
<feBlend mode="normal" in="SourceGraphic" in2="effect1_dropShadow_601_1985" result="shape"/>
</filter>
</defs>
</svg>
