<svg width="286" height="131" viewBox="0 0 286 131" fill="none" xmlns="http://www.w3.org/2000/svg">
<path opacity="0.996" fill-rule="evenodd" clip-rule="evenodd" d="M146.405 74.112C146.215 74.1601 146.025 74.2086 145.833 74.2576C145.548 74.2013 145.262 74.1528 144.975 74.112C142.402 73.6453 139.845 73.1193 137.305 72.5352C133.578 71.5701 130.029 70.2601 126.659 68.6052C122.537 66.6237 118.664 64.3433 115.04 61.7641C112.358 59.8146 110.097 57.5745 108.258 55.0443C106.525 52.3675 105.495 49.5049 105.167 46.4565C104.802 44.2319 105.069 42.0648 105.969 39.955C106.52 38.5017 107.341 37.1755 108.43 35.9765C110.011 34.3488 111.909 33.063 114.125 32.1193C118.057 30.8129 122.026 30.732 126.03 31.8767C127.442 32.354 128.778 32.9444 130.036 33.6476C130.115 33.6997 130.182 33.7644 130.236 33.8417C131.912 36.779 133.266 39.8195 134.3 42.9631C134.786 44.5452 135.253 46.1301 135.702 47.718C133.666 46.8509 131.51 46.5032 129.235 46.6748C125.087 47.0692 122.731 49.0183 122.166 52.5213C121.959 56.5236 123.409 60.0169 126.516 63.0013C128.173 64.5359 130.033 65.8537 132.097 66.9556C136.264 69.2471 140.766 70.8885 145.604 71.8802C153.657 70.0564 160.058 66.2559 164.807 60.4783C167.03 57.6948 168.652 54.6702 169.672 51.4054C170.608 48.6728 170.684 45.9233 169.901 43.1572C169.359 41.5013 168.357 40.0862 166.896 38.9119C164.822 37.5969 162.495 36.7882 159.913 36.4859C156.658 36.3832 153.681 37.0948 150.984 38.6207C148.353 40.3981 146.321 42.5734 144.889 45.1465C144.364 46.1479 143.859 47.1506 143.372 48.1546C143.377 48.0202 143.348 47.8908 143.286 47.7665C142.25 45.6649 141.315 43.53 140.482 41.362C139.539 38.0723 138.9 34.7407 138.564 31.3672C141.207 28.2623 144.584 25.9092 148.695 24.3078C150.323 23.7308 152.021 23.4074 153.789 23.3374C160.317 22.8318 166.06 24.3682 171.017 27.9467C172.175 28.8375 173.12 29.8645 173.85 31.0276C175.333 33.3597 176.325 35.8342 176.826 38.4509C177.146 41.3407 177.032 44.2195 176.483 47.0872C175.68 50.8275 174.039 54.2723 171.56 57.4217C169.774 59.7467 167.684 61.8732 165.293 63.8019C161.369 66.9677 157.057 69.6847 152.358 71.953C150.433 72.7933 148.448 73.5133 146.405 74.112Z" fill="#F47976"/>
<path opacity="0.952" fill-rule="evenodd" clip-rule="evenodd" d="M131.353 34.5694C132.369 36.5363 133.275 38.5417 134.071 40.5857C134.937 43.0707 135.71 45.5613 136.389 48.0576C136.139 47.9681 135.911 47.8549 135.702 47.718C135.253 46.1301 134.786 44.5452 134.3 42.9631C133.266 39.8195 131.912 36.779 130.236 33.8417C130.182 33.7644 130.115 33.6997 130.036 33.6476C128.826 31.7905 127.529 29.9791 126.144 28.2135C125.537 28.2123 124.926 28.2042 124.313 28.1893C123.592 28.1386 122.991 27.8879 122.51 27.4372C122.104 26.6967 122.362 26.2034 123.282 25.9574C123.615 25.9113 123.94 25.9356 124.255 26.0302C124.328 25.5408 124.614 25.1769 125.114 24.9385C125.581 24.7902 125.972 24.8792 126.287 25.2054C126.439 25.4147 126.535 25.6411 126.573 25.8846C126.621 26.4687 126.602 27.051 126.516 27.6313C126.49 27.7007 126.442 27.7573 126.373 27.8011C128.213 29.9566 129.872 32.2128 131.353 34.5694Z" fill="#FA9F8F"/>
<path opacity="0.966" fill-rule="evenodd" clip-rule="evenodd" d="M138.564 31.3672C138.9 34.7407 139.539 38.0723 140.482 41.362C141.315 43.53 142.25 45.6649 143.286 47.7665C143.348 47.8908 143.377 48.0202 143.372 48.1546C143.298 48.3603 143.202 48.5544 143.086 48.7369C141.739 46.0807 140.623 43.3475 139.738 40.5372C139.019 37.6771 138.495 34.7983 138.164 31.9009C138.098 31.2074 138.041 30.5119 137.992 29.8146C136.93 29.2948 136.281 28.5266 136.046 27.51C136.212 26.6413 136.803 26.2855 137.82 26.4426C138.095 26.6248 138.276 26.8593 138.364 27.1461C138.573 26.7826 138.907 26.5561 139.366 26.4669C140.024 26.6425 140.348 27.0306 140.339 27.6313C140.336 27.8712 140.27 28.0976 140.138 28.3106C139.663 28.8667 139.12 29.368 138.507 29.8146C138.488 29.8793 138.469 29.944 138.45 30.0087C138.492 30.4615 138.53 30.9144 138.564 31.3672Z" fill="#FA9F8F"/>
<path opacity="0.996" fill-rule="evenodd" clip-rule="evenodd" d="M138.164 31.9009C138.495 34.7983 139.019 37.6771 139.738 40.5372C140.623 43.3475 141.739 46.0807 143.086 48.7369C142.673 49.6791 142.244 50.6174 141.798 51.5509C140.098 50.2628 138.295 49.0983 136.389 48.0576C135.71 45.5613 134.937 43.0707 134.071 40.5858C133.275 38.5417 132.369 36.5363 131.353 34.5695C132.472 35.3398 133.559 36.1484 134.615 36.9954C135.349 35.8795 136.084 34.7635 136.819 33.6476C137.237 33.0438 137.685 32.4616 138.164 31.9009Z" fill="#F57A77"/>
<path fill-rule="evenodd" clip-rule="evenodd" d="M125.629 36.3646C126.359 36.3062 126.865 36.565 127.146 37.1409C127.333 37.8796 127.2 38.575 126.745 39.2272C126.579 39.384 126.436 39.5539 126.316 39.7367C127 40.678 127.677 41.6241 128.348 42.575C129.129 43.8836 129.864 45.2098 130.551 46.5535C130.325 46.6016 130.097 46.6178 129.864 46.602C128.801 44.2495 127.494 42.0015 125.944 39.858C124.799 39.7852 123.826 39.397 123.025 38.6935C122.744 38.2861 122.706 37.8656 122.91 37.432C123.215 37.1571 123.587 37.0681 124.026 37.1652C124.358 37.2184 124.663 37.3236 124.942 37.4806C124.949 36.9991 125.178 36.6271 125.629 36.3646Z" fill="#FA9F8F"/>
<path fill-rule="evenodd" clip-rule="evenodd" d="M135.702 47.718C135.911 47.8549 136.139 47.9681 136.389 48.0576C138.295 49.0983 140.098 50.2628 141.798 51.5509C142.244 50.6174 142.673 49.6791 143.086 48.7368C143.202 48.5544 143.298 48.3603 143.372 48.1546C143.859 47.1506 144.364 46.1479 144.889 45.1465C146.321 42.5733 148.353 40.3981 150.984 38.6207C153.681 37.0948 156.657 36.3832 159.913 36.4859C162.495 36.7882 164.822 37.5969 166.896 38.9118C168.357 40.0862 169.359 41.5013 169.901 43.1572C170.684 45.9233 170.608 48.6728 169.672 51.4054C168.652 54.6702 167.03 57.6948 164.807 60.4783C160.058 66.2559 153.657 70.0564 145.604 71.8802C140.766 70.8885 136.264 69.2471 132.097 66.9556C130.033 65.8537 128.173 64.5359 126.516 63.0013C123.409 60.0169 121.959 56.5236 122.166 52.5213C122.731 49.0183 125.087 47.0692 129.235 46.6748C131.51 46.5032 133.666 46.8509 135.702 47.718Z" fill="#F33B3B"/>
<path opacity="0.952" fill-rule="evenodd" clip-rule="evenodd" d="M144.975 74.112C145.262 74.1528 145.548 74.2013 145.833 74.2576C146.025 74.2086 146.215 74.1601 146.405 74.112C146.83 78.2458 147.145 82.3864 147.35 86.5328C147.617 85.6754 147.941 84.8346 148.323 84.0098C148.948 82.8691 149.587 81.7372 150.24 80.6135C150.451 80.7125 150.662 80.8095 150.87 80.9046C149.706 82.643 148.838 84.4867 148.266 86.4357C147.97 87.4061 147.674 88.3765 147.378 89.3468C147.523 93.4268 147.409 97.5023 147.035 101.574C146.635 102.567 146.263 103.57 145.919 104.582C145.629 105.549 145.409 106.528 145.261 107.517C145.339 107.879 145.54 107.952 145.862 107.735C146.077 107.276 146.296 106.823 146.52 106.377C146.355 108.13 146.116 109.877 145.805 111.617C145.677 111.806 145.496 111.943 145.261 112.029C144.992 112.043 144.725 112.067 144.459 112.102C144.068 112.021 143.906 111.811 143.973 111.471C144.246 110.443 144.475 109.408 144.66 108.366C144.894 106.701 145.113 105.035 145.318 103.369C145.508 103.449 145.699 103.53 145.89 103.611C146.085 103.573 146.161 103.468 146.119 103.296C146.12 103.184 146.091 103.079 146.033 102.981C145.799 102.806 145.598 102.612 145.432 102.398C145.761 99.5745 145.942 96.7445 145.976 93.9076C145.446 92.6194 144.626 91.4875 143.515 90.5113C142.977 90.031 142.414 89.5778 141.827 89.1528C141.977 88.9606 142.149 88.7826 142.342 88.6191C143.734 89.5006 144.946 90.5355 145.976 91.7243C145.915 85.8424 145.581 79.9716 144.975 74.112Z" fill="#676F54"/>
<path opacity="0.98" fill-rule="evenodd" clip-rule="evenodd" d="M150.87 80.9046C150.662 80.8095 150.452 80.7125 150.24 80.6135C150.009 80.4738 149.827 80.2957 149.697 80.0798C148.692 78.5491 148.482 76.948 149.067 75.2765C149.45 74.5118 150.127 74.1965 151.099 74.3304C151.855 74.5021 152.38 74.8985 152.673 75.5191C152.75 75.7136 152.826 75.9077 152.902 76.1013C153.589 75.7151 154.342 75.5778 155.163 75.6889C156.174 75.8912 156.689 76.4332 156.708 77.3143C156.556 78.4535 155.926 79.3511 154.819 80.007C153.622 80.6931 152.306 80.9925 150.87 80.9046Z" fill="#F23B3B"/>
<path opacity="0.99" fill-rule="evenodd" clip-rule="evenodd" d="M148.695 101.04C149.12 99.9787 149.626 98.9433 150.212 97.9346C150.739 97.4873 151.264 97.0424 151.786 96.6004C152.357 96.2142 152.987 95.9066 153.674 95.6785C154.814 95.4413 155.94 95.1662 157.051 94.8537C158.331 94.4544 159.552 93.9532 160.714 93.3496C161.013 93.1206 161.28 92.8698 161.516 92.5976C161.497 92.5816 161.477 92.5651 161.458 92.5491C160.872 92.7655 160.318 93.0323 159.799 93.3496C159.329 93.5568 158.852 93.7509 158.368 93.9319C157.165 94.288 155.943 94.5951 154.705 94.8537C153.392 95.1953 152.2 95.7212 151.127 96.4306C151.762 95.1541 152.553 93.9489 153.503 92.8159C154.561 92.0654 155.725 91.4506 156.994 90.9722C157.845 90.7102 158.703 90.4676 159.57 90.2445C161.527 89.8054 163.473 89.3367 165.408 88.8374C166.321 88.5963 167.046 88.1436 167.583 87.4789C167.429 87.4896 167.276 87.5221 167.125 87.5759C166.492 87.9976 165.787 88.3052 165.007 88.4978C162.49 89.0431 159.99 89.6419 157.509 90.293C156.439 90.5948 155.437 91.0072 154.504 91.5302C154.507 91.4438 154.545 91.3628 154.619 91.2876C156.013 89.7011 157.473 88.1567 158.997 86.6541C159.64 86.3863 160.307 86.1762 161.001 86.0234C164.83 86.0685 167.081 84.4916 167.754 81.2928C167.715 81.1162 167.687 80.9386 167.668 80.7591C167.414 81.2758 167.204 81.8095 167.039 82.3602C166.611 83.4989 165.8 84.3805 164.606 85.0045C164.082 85.2281 163.529 85.3737 162.947 85.4411C161.89 85.463 160.86 85.592 159.856 85.8293C160.934 84.6566 162.012 83.4844 163.09 82.3117C163.118 82.2326 163.127 82.1516 163.118 82.0691C163.021 82.0613 162.925 82.0696 162.832 82.0934C161.676 83.1219 160.541 84.1651 159.427 85.2228C159.508 84.0821 159.756 82.9662 160.171 81.875C160.775 80.5699 161.853 79.6723 163.404 79.1822C163.519 79.0852 163.633 78.9882 163.748 78.8911C163.576 78.8586 163.404 78.8586 163.233 78.8911C161.323 79.5073 160.092 80.6475 159.541 82.3117C159.2 83.498 158.934 84.6944 158.74 85.9021C157.557 86.9695 156.374 88.0369 155.191 89.1043C154.749 89.5594 154.33 90.0286 153.932 90.5113C154.156 89.5303 154.366 88.5439 154.562 87.5517C154.677 86.5284 154.829 85.5095 155.019 84.495C155.286 83.4281 155.744 82.4257 156.393 81.4869C156.434 81.3205 156.472 81.1589 156.508 81.0017C155.934 81.4888 155.495 82.055 155.191 82.6998C154.579 84.1927 154.217 85.7288 154.104 87.3091C153.826 88.7889 153.425 90.2445 152.902 91.6758C152.025 92.7359 151.252 93.8518 150.584 95.0235C150.527 94.6441 150.508 94.256 150.526 93.8591C150.704 91.9154 151.267 90.0552 152.215 88.2795C152.256 88.1009 152.275 87.9233 152.272 87.7458C152.171 87.868 152.057 87.9811 151.929 88.0854C150.621 90.3347 149.954 92.7121 149.925 95.2176C149.796 95.9303 149.587 96.6261 149.296 97.3039C148.768 98.2641 148.243 99.218 147.722 100.166C147.797 99.3815 147.94 98.6052 148.151 97.8376C149.057 94.3603 150.221 90.948 151.643 87.6002C152.773 85.069 154.204 82.6756 155.935 80.4195C157.271 78.7048 159.055 77.4516 161.287 76.6593C162.74 76.2415 164.009 76.4924 165.093 77.4113C165.614 78.1022 165.719 78.8382 165.408 79.6189C165.997 79.42 166.607 79.2584 167.239 79.1337C168.618 78.878 169.811 79.1609 170.816 79.9828C171.959 81.4151 172.188 82.9512 171.503 84.5921C171.147 85.4547 170.67 86.2635 170.072 87.018C169.085 88.2115 167.969 89.3192 166.724 90.3415C164.101 92.3545 161.239 94.0847 158.139 95.533C156.87 96.0531 155.592 96.5543 154.304 97.0371C152.414 97.8468 150.859 98.987 149.639 100.458C149.393 100.74 149.078 100.934 148.695 101.04Z" fill="#F47976"/>
<path opacity="0.995" fill-rule="evenodd" clip-rule="evenodd" d="M148.695 101.04C147.958 102.819 147.232 104.597 146.52 106.377C146.296 106.823 146.077 107.276 145.862 107.735C145.539 107.952 145.339 107.879 145.261 107.517C145.409 106.528 145.629 105.549 145.919 104.582C146.263 103.57 146.635 102.567 147.035 101.574C147.285 101.116 147.514 100.647 147.722 100.166C148.243 99.2179 148.768 98.2641 149.296 97.3039C149.587 96.6261 149.796 95.9303 149.925 95.2176C149.953 92.7121 150.621 90.3347 151.929 88.0854C152.057 87.9811 152.171 87.868 152.272 87.7457C152.275 87.9233 152.256 88.1009 152.215 88.2794C151.266 90.0552 150.704 91.9154 150.526 93.8591C150.46 94.287 150.451 94.7237 150.498 95.1691C150.527 95.1191 150.556 95.0706 150.584 95.0235C151.252 93.8518 152.025 92.7359 152.902 91.6757C153.425 90.2444 153.825 88.7889 154.104 87.3091C154.217 85.7288 154.579 84.1927 155.191 82.6998C155.495 82.055 155.934 81.4888 156.508 81.0017C156.472 81.1589 156.434 81.3204 156.393 81.4869C155.744 82.4257 155.286 83.4281 155.019 84.495C154.829 85.5095 154.677 86.5284 154.561 87.5517C154.366 88.5439 154.156 89.5303 153.932 90.5113C154.33 90.0285 154.749 89.5594 155.191 89.1043C156.374 88.0369 157.557 86.9694 158.74 85.902C158.934 84.6944 159.2 83.4979 159.541 82.3117C160.092 80.6475 161.323 79.5073 163.233 78.8911C163.404 78.8586 163.576 78.8586 163.748 78.8911C163.633 78.9881 163.519 79.0852 163.404 79.1822C161.853 79.6723 160.775 80.5699 160.171 81.875C159.756 82.9662 159.508 84.0821 159.427 85.2228C160.541 84.1651 161.676 83.1219 162.832 82.0933C162.925 82.0696 163.021 82.0613 163.118 82.0691C163.127 82.1516 163.118 82.2326 163.09 82.3117C162.012 83.4844 160.934 84.6566 159.856 85.8293C160.86 85.592 161.89 85.4629 162.946 85.4411C163.529 85.3737 164.082 85.2281 164.606 85.0044C165.8 84.3805 166.611 83.4989 167.039 82.3602C167.204 81.8095 167.414 81.2758 167.668 80.7591C167.687 80.9386 167.715 81.1162 167.754 81.2928C167.081 84.4916 164.83 86.0685 161 86.0233C160.307 86.1762 159.64 86.3863 158.997 86.6541C157.472 88.1567 156.013 89.701 154.619 91.2876C154.545 91.3628 154.507 91.4438 154.504 91.5302C155.437 91.0072 156.439 90.5947 157.509 90.293C159.99 89.6418 162.49 89.0431 165.007 88.4978C165.787 88.3052 166.492 87.9976 167.125 87.5759C167.276 87.5221 167.429 87.4896 167.583 87.4789C167.046 88.1436 166.321 88.5963 165.408 88.8374C163.472 89.3367 161.526 89.8054 159.57 90.2444C158.703 90.4676 157.845 90.7102 156.994 90.9722C155.725 91.4506 154.561 92.0653 153.503 92.8159C152.553 93.9488 151.762 95.154 151.127 96.4306C152.2 95.7212 153.392 95.1953 154.705 94.8537C155.943 94.5951 157.165 94.288 158.368 93.9319C158.852 93.7509 159.329 93.5568 159.799 93.3496C160.318 93.0323 160.872 92.7655 161.458 92.5491C161.477 92.5651 161.497 92.5816 161.516 92.5976C161.28 92.8698 161.013 93.1206 160.714 93.3496C159.552 93.9532 158.33 94.4544 157.051 94.8537C155.94 95.1662 154.814 95.4413 153.674 95.6785C152.987 95.9066 152.357 96.2142 151.786 96.6004C151.264 97.0424 150.739 97.4873 150.212 97.9346C149.626 98.9433 149.12 99.9787 148.695 101.04Z" fill="#6C7156"/>
<path opacity="0.98" fill-rule="evenodd" clip-rule="evenodd" d="M142.342 88.6191C142.149 88.7826 141.977 88.9607 141.827 89.1528C140.982 89.5405 140.076 89.702 139.108 89.638C137.793 89.7001 136.563 89.4652 135.416 88.9345C134.227 88.1611 134.008 87.2315 134.758 86.1446C135.51 85.4251 136.435 85.1825 137.534 85.4169C137.325 84.4048 137.649 83.5397 138.507 82.8211C139.695 82.4233 140.677 82.6581 141.455 83.5246C142.333 84.9176 142.714 86.4057 142.599 87.9883C142.541 88.2086 142.456 88.4187 142.342 88.6191Z" fill="#F23B3B"/>
<path opacity="0.988" fill-rule="evenodd" clip-rule="evenodd" d="M144.002 101.574C143.17 101.164 142.311 100.792 141.426 100.458C140.878 99.544 140.258 98.6706 139.566 97.8376C139.152 97.3393 138.627 96.9754 137.992 96.7459C138.504 97.2995 139.01 97.8575 139.509 98.4198C139.905 98.9618 140.239 99.528 140.51 100.118C139.15 99.7041 137.758 99.3727 136.332 99.1233C135.544 98.8584 134.886 98.446 134.357 97.8861C133.748 97.12 133.09 96.384 132.383 95.6785C131.805 95.219 131.127 94.9202 130.351 94.7809C130.322 94.7892 130.294 94.7969 130.265 94.8052C130.655 95.1079 131.094 95.3505 131.581 95.533C131.863 95.7295 132.14 95.9318 132.411 96.1394C132.922 96.7619 133.418 97.3927 133.9 98.0317C134.195 98.347 134.529 98.6299 134.901 98.8807C133.425 98.7987 131.946 98.726 130.465 98.6624C130.186 98.6629 129.909 98.6871 129.635 98.7352C129.899 98.8259 130.166 98.9064 130.437 98.9778C131.943 99.1262 133.45 99.2718 134.958 99.4144C133.745 100.168 132.581 100.977 131.467 101.84C130.226 102.656 128.814 103.029 127.232 102.956C127.101 102.996 126.967 103.029 126.831 103.053C128.457 103.408 129.964 103.182 131.353 102.374C132.497 101.598 133.642 100.821 134.787 100.045C135.111 99.8356 135.464 99.6658 135.846 99.5357C137.276 99.8351 138.678 100.207 140.052 100.652C138.864 100.892 137.815 101.353 136.904 102.034C136.745 102.188 136.63 102.341 136.561 102.495C136.726 102.425 136.898 102.368 137.076 102.326C137.962 101.74 138.954 101.336 140.052 101.113C140.765 101.069 141.452 101.166 142.113 101.404C142.523 101.586 142.923 101.78 143.315 101.986C143.46 102.053 143.575 102.142 143.658 102.253C143.375 102.444 143.05 102.565 142.685 102.617C141.579 102.649 140.472 102.681 139.366 102.714C138.091 102.847 136.87 103.138 135.702 103.587C134.458 104.213 133.142 104.699 131.753 105.043C129.86 105.437 127.991 105.372 126.144 104.849C124.946 104.366 124.249 103.565 124.055 102.447C123.839 100.624 124.727 99.3543 126.716 98.6381C127.146 98.5207 127.585 98.4402 128.033 98.3955C126.674 97.318 126.493 96.1132 127.489 94.7809C128.223 94.1099 129.129 93.714 130.208 93.5922C131.569 93.4399 132.885 93.5854 134.157 94.0289C136.037 94.6475 137.754 95.4883 139.308 96.5518C140.951 97.7663 142.411 99.1165 143.687 100.603C143.917 100.898 144.022 101.221 144.002 101.574Z" fill="#F47976"/>
<path fill-rule="evenodd" clip-rule="evenodd" d="M150.526 93.8591C150.508 94.256 150.527 94.6441 150.584 95.0235C150.556 95.0706 150.527 95.1191 150.498 95.1691C150.451 94.7237 150.46 94.287 150.526 93.8591Z" fill="#C1776A"/>
<path opacity="0.991" fill-rule="evenodd" clip-rule="evenodd" d="M144.002 101.574C144.494 101.83 144.971 102.104 145.432 102.398C145.598 102.612 145.799 102.806 146.033 102.981C146.091 103.079 146.12 103.184 146.119 103.296C146.161 103.468 146.085 103.573 145.89 103.611C145.699 103.53 145.508 103.449 145.318 103.369C144.781 102.978 144.228 102.606 143.658 102.253C143.575 102.142 143.46 102.053 143.315 101.986C142.923 101.78 142.523 101.586 142.113 101.404C141.451 101.166 140.765 101.069 140.052 101.113C138.954 101.336 137.962 101.74 137.076 102.326C136.898 102.368 136.726 102.425 136.561 102.495C136.63 102.341 136.745 102.188 136.904 102.034C137.815 101.353 138.864 100.892 140.052 100.652C138.678 100.207 137.276 99.8351 135.846 99.5358C135.464 99.6658 135.111 99.8356 134.787 100.045C133.642 100.822 132.497 101.598 131.353 102.374C129.964 103.182 128.457 103.409 126.831 103.053C126.967 103.029 127.101 102.996 127.232 102.956C128.814 103.029 130.226 102.656 131.467 101.84C132.581 100.977 133.745 100.168 134.958 99.4145C133.45 99.2718 131.943 99.1263 130.437 98.9778C130.166 98.9065 129.899 98.8259 129.635 98.7352C129.909 98.6872 130.186 98.6629 130.465 98.6624C131.946 98.726 133.425 98.7988 134.901 98.8808C134.529 98.6299 134.195 98.3471 133.9 98.0317C133.418 97.3927 132.922 96.762 132.411 96.1395C132.14 95.9318 131.863 95.7295 131.581 95.533C131.094 95.3506 130.655 95.108 130.265 94.8052C130.294 94.797 130.322 94.7892 130.351 94.7809C131.127 94.9202 131.805 95.2191 132.383 95.6785C133.09 96.384 133.748 97.12 134.357 97.8861C134.886 98.446 135.544 98.8584 136.332 99.1234C137.758 99.3727 139.15 99.7041 140.51 100.118C140.239 99.528 139.905 98.9618 139.509 98.4198C139.01 97.8575 138.504 97.2995 137.992 96.7459C138.627 96.9754 139.152 97.3393 139.566 97.8376C140.258 98.6707 140.878 99.544 141.426 100.458C142.311 100.792 143.17 101.164 144.002 101.574Z" fill="#6D7156"/>
<g filter="url(#filter0_d_601_2215)">
<path d="M73.7812 54.1562C73.7812 55.2188 73.1042 56.5 71.75 58C70.3958 59.5 68.7188 60.9271 66.7188 62.2812C64.7396 63.6354 62.7708 64.7083 60.8125 65.5C61.25 65.3542 61.6979 65.2812 62.1562 65.2812C63.6979 65.2812 64.7188 65.5625 65.2188 66.125C65.3438 66.25 65.4062 66.3958 65.4062 66.5625C65.4062 66.7292 65.125 67.1354 64.5625 67.7812C58.7083 74.5521 53.3333 81.2708 48.4375 87.9375C50.4375 86.375 52.2083 84.8854 53.75 83.4688C54.6042 82.6979 55.6458 82.3125 56.875 82.3125C57.7708 82.3125 58.3229 82.4271 58.5312 82.6562C58.7396 82.8854 58.8438 83.0833 58.8438 83.25C58.8438 83.3958 58.7083 83.5729 58.4375 83.7812C54.9583 86.8229 49.2812 91.2604 41.4062 97.0938C40.0521 98.6146 36.6354 102.24 31.1562 107.969C30.1771 108.969 29.0938 109.469 27.9062 109.469C25.5938 109.469 24.4375 108.823 24.4375 107.531C24.4375 106.969 24.8854 106.073 25.7812 104.844C27.0729 102.948 30.2292 100.083 35.25 96.25C36.3542 95.0208 38.2604 92.9375 40.9688 90C46.0938 84.4167 49.1875 80.8333 50.25 79.25C47.4167 81.9375 45.2708 83.8333 43.8125 84.9375C42.3542 86.0417 41 87 39.75 87.8125C38.5208 88.625 37.3854 89.2812 36.3438 89.7812C31.3021 92.1979 27.7083 92.2083 25.5625 89.8125C24.4792 88.625 23.9375 86.8854 23.9375 84.5938C23.9375 82.2812 24.5729 79.7396 25.8438 76.9688C27.1146 74.1979 28.8125 71.4688 30.9375 68.7812C33.0625 66.0729 35.5833 63.4375 38.5 60.875C41.4167 58.3125 44.4479 56.0625 47.5938 54.125C50.7396 52.1875 54.0521 50.6354 57.5312 49.4688C61.0104 48.2812 64.2917 47.6875 67.375 47.6875C68.4375 47.6875 69.4375 47.8646 70.375 48.2188C71.3125 48.5729 71.9792 48.9479 72.375 49.3438C73.3125 50.2812 73.7812 51.8854 73.7812 54.1562ZM55.7188 60.6875L55.5625 61.3125C55.5625 61.6667 55.8021 61.8438 56.2812 61.8438C57.5521 61.8438 59.2917 61.2292 61.5 60C63.7083 58.7708 65.4896 57.5104 66.8438 56.2188C68.1979 54.9271 68.875 53.8542 68.875 53C68.875 52.2708 68.2292 51.9062 66.9375 51.9062C64.6458 51.9062 62.0625 52.4688 59.1875 53.5938C56.3333 54.7188 53.5417 56.1771 50.8125 57.9688C48.0833 59.7604 45.3958 61.8229 42.75 64.1562C40.1042 66.4688 37.7917 68.7917 35.8125 71.125C33.8542 73.4375 32.2708 75.7083 31.0625 77.9375C29.8542 80.1667 29.25 82.0729 29.25 83.6562C29.25 84.2812 29.4271 84.8333 29.7812 85.3125C30.1562 85.7917 30.6979 86.0312 31.4062 86.0312C33.5938 86.0312 37.1146 84.3542 41.9688 81C46.8438 77.6458 52.4375 73.0729 58.75 67.2812C58.8333 67.1979 58.9792 67.0417 59.1875 66.8125C59.6458 66.25 60.1146 65.8438 60.5938 65.5938C58.8854 66.2812 57.4896 66.625 56.4062 66.625C55.3229 66.625 54.4271 66.3854 53.7188 65.9062C53.0104 65.4271 52.6562 64.7812 52.6562 63.9688C52.6562 63.1354 53.0208 62.3542 53.75 61.625C54.4792 60.8958 54.9896 60.5312 55.2812 60.5312C55.5729 60.5312 55.7188 60.5833 55.7188 60.6875ZM73.1562 75.9688C78.0729 70.3854 82.2604 67.5938 85.7188 67.5938C86.5729 67.5938 87.2708 67.8542 87.8125 68.375C88.375 68.875 88.6562 69.5312 88.6562 70.3438C88.6562 71.1562 88.0729 72.5208 86.9062 74.4375C85.7604 76.3333 84.6979 77.9375 83.7188 79.25C83.1979 79.9167 82.6042 80.25 81.9375 80.25C81.2917 80.25 80.7812 80.0104 80.4062 79.5312C80.0521 79.0521 79.875 78.4896 79.875 77.8438C79.875 76.4062 80.6458 74.7812 82.1875 72.9688L82.125 72.9062C81.4375 72.9688 79.7292 74.3229 77 76.9688C74.2917 79.6146 71.9792 81.9896 70.0625 84.0938C68.1667 86.1771 66.1042 88.7188 63.875 91.7188C63.2292 92.6146 62.6771 93.0625 62.2188 93.0625C61.7812 93.0625 61.1979 92.9271 60.4688 92.6562C59.7188 92.3646 59.2708 92.1562 59.125 92.0312C58.9583 91.9062 58.875 91.6979 58.875 91.4062C58.875 91.1146 58.9583 90.7812 59.125 90.4062C59.2917 90.0104 59.6042 89.4583 60.0625 88.75C60.5 88.0417 61.1667 86.8958 62.0625 85.3125C62.9792 83.7292 64.3958 81.3333 66.3125 78.125C68.2292 74.9167 69.375 72.9792 69.75 72.3125C70.5417 70.9375 71.1875 69.9375 71.6875 69.3125C72.625 68.125 74.2083 67.5312 76.4375 67.5312C76.9375 67.5312 77.1875 67.8438 77.1875 68.4688C77.1875 69.4479 76.2812 71.2917 74.4688 74L73.1562 75.9688ZM109.156 69.25C110.74 69.25 111.531 69.7917 111.531 70.875C111.531 71.4583 111.396 71.8854 111.125 72.1562C110.854 72.4271 110.271 73.3333 109.375 74.875C108.5 76.3958 107.521 78.3542 106.438 80.75C105.375 83.125 104.688 85.1562 104.375 86.8438C104.312 87.0521 104.281 87.3438 104.281 87.7188C104.281 88.8646 104.594 89.4375 105.219 89.4375C105.844 89.4375 106.583 89.1458 107.438 88.5625C108.292 87.9583 109.052 87.3229 109.719 86.6562C110.385 85.9688 111.031 85.2708 111.656 84.5625C112.302 83.8542 112.688 83.4479 112.812 83.3438C112.938 83.2396 113.125 83.1875 113.375 83.1875C113.771 83.1875 114.01 83.4896 114.094 84.0938C114.177 84.6979 114.219 85.3229 114.219 85.9688C114.219 86.6146 114.156 87.0625 114.031 87.3125C113.427 88.5 112.094 89.9271 110.031 91.5938C107.99 93.2604 106.125 94.0938 104.438 94.0938C102.771 94.0938 101.542 93.5833 100.75 92.5625C99.9583 91.5417 99.5625 90.4167 99.5625 89.1875C99.5625 87.9375 99.7708 86.8438 100.188 85.9062C98.4583 88.1562 96.4688 90.0625 94.2188 91.625C91.9896 93.1875 90.1667 93.9688 88.75 93.9688C87.3333 93.9688 86.1771 93.5417 85.2812 92.6875C84.1354 91.625 83.5625 90.1562 83.5625 88.2812C83.5625 86.3854 83.9792 84.4896 84.8125 82.5938C85.6667 80.6771 86.7812 78.9375 88.1562 77.375C89.5312 75.7917 91.0417 74.3542 92.6875 73.0625C96.1458 70.3542 99.3333 69 102.25 69C103.375 69 104.292 69.1875 105 69.5625C105.708 69.9375 106.156 70.4062 106.344 70.9688C106.844 70.2188 107.26 69.75 107.594 69.5625C107.948 69.3542 108.469 69.25 109.156 69.25ZM105 72.7188C101.438 72.7188 97.75 74.6979 93.9375 78.6562C92.5833 80.0729 91.3333 81.7708 90.1875 83.75C89.0625 85.7292 88.5 87.0833 88.5 87.8125C88.5 88.5417 88.7083 88.9062 89.125 88.9062C89.7083 88.9062 91.3333 87.7604 94 85.4688C96.6667 83.1562 98.4375 81.4583 99.3125 80.375C100.271 79.1667 102.167 76.6146 105 72.7188ZM150.625 46.1562C151.021 46.1562 151.333 46.2812 151.562 46.5312C151.792 46.7812 151.906 47.0417 151.906 47.3125C151.906 47.5625 151.698 48.0417 151.281 48.75C150.885 49.4375 149.958 50.9583 148.5 53.3125C147.042 55.6458 145.906 57.4792 145.094 58.8125C140.365 66.5 136.656 73 133.969 78.3125C131.281 83.625 129.938 86.8333 129.938 87.9375V88.1875C129.938 89.0417 130.25 89.4688 130.875 89.4688C131.5 89.4688 132.25 89.1771 133.125 88.5938C134.021 88.0104 134.802 87.3854 135.469 86.7188C136.135 86.0521 136.802 85.3646 137.469 84.6562C138.156 83.9271 138.573 83.5 138.719 83.375C138.865 83.25 139.052 83.1875 139.281 83.1875C139.635 83.1875 139.865 83.4167 139.969 83.875C140.073 84.3125 140.125 84.9375 140.125 85.75C140.125 86.5417 140.062 87.0625 139.938 87.3125C139.333 88.4792 138 89.9062 135.938 91.5938C133.896 93.2604 131.958 94.0938 130.125 94.0938C127 94.0938 125.438 92.7708 125.438 90.125C125.438 88.4792 126.062 86.3229 127.312 83.6562C125.625 85.8438 123.906 87.7083 122.156 89.25C118.906 92.0833 116.083 93.5 113.688 93.5C112.354 93.5 111.365 93.0312 110.719 92.0938C110.094 91.1562 109.781 89.8125 109.781 88.0625C109.781 86.2917 110.469 84.1771 111.844 81.7188C113.219 79.2604 114.927 77.0521 116.969 75.0938C119.031 73.1146 121.312 71.4688 123.812 70.1562C126.312 68.8229 128.615 68.1562 130.719 68.1562C131.385 68.1562 132.167 68.5625 133.062 69.375C133.667 68.4167 134.781 66.5 136.406 63.625C141.51 55.0208 144.885 49.7708 146.531 47.875C147.406 46.7292 148.771 46.1562 150.625 46.1562ZM131.156 72.3125C128.156 72.9792 125.365 74.375 122.781 76.5C120.198 78.625 118.26 80.8542 116.969 83.1875C115.677 85.5 115.031 87 115.031 87.6875C115.031 88.375 115.177 88.7188 115.469 88.7188C116.719 88.7188 119.812 85.9271 124.75 80.3438C127.208 77.5938 129.344 74.9167 131.156 72.3125ZM164.219 83.1875C164.615 83.1875 164.854 83.4896 164.938 84.0938C165.021 84.6979 165.062 85.3229 165.062 85.9688C165.062 86.6146 165 87.0625 164.875 87.3125C164.271 88.4792 162.948 89.9062 160.906 91.5938C158.865 93.2604 156.927 94.0938 155.094 94.0938C153.969 94.0938 152.927 93.75 151.969 93.0625C151.01 92.3958 150.531 91.2188 150.531 89.5312C150.531 87.8438 150.979 86.1875 151.875 84.5625C146.708 91.0417 142.656 94.2812 139.719 94.2812C138.552 94.2812 137.604 93.8646 136.875 93.0312C136.167 92.1979 135.812 91.3438 135.812 90.4688C135.812 89.5729 135.938 88.6562 136.188 87.7188C136.438 86.7604 136.698 85.9062 136.969 85.1562C137.26 84.4062 137.677 83.4792 138.219 82.375C138.781 81.2708 139.198 80.4688 139.469 79.9688C139.74 79.4688 140.167 78.7188 140.75 77.7188C141.354 76.6979 142.135 75.3333 143.094 73.625C144.073 71.9167 144.875 70.6562 145.5 69.8438C146.146 69.0104 146.771 68.5938 147.375 68.5938C147.979 68.5729 148.51 68.8125 148.969 69.3125C149.427 69.8125 149.656 70.2188 149.656 70.5312C149.656 70.8438 148.958 72.25 147.562 74.75C143.438 82.2083 141.375 86.5521 141.375 87.7812C141.375 88.0938 141.49 88.25 141.719 88.25C142.719 88.25 145.208 86.0833 149.188 81.75C153.167 77.4167 155.469 74.6458 156.094 73.4375C156.719 72.2083 157.323 71.1771 157.906 70.3438C158.51 69.5104 158.958 69 159.25 68.8125C160.146 68.2292 161.302 67.9167 162.719 67.875C162.948 67.875 163.125 67.8854 163.25 67.9062C163.375 67.9271 163.521 68.1042 163.688 68.4375C163.854 68.7708 163.938 69.0312 163.938 69.2188C163.75 69.8021 162.917 71.3542 161.438 73.875C159.979 76.3958 159.167 77.8229 159 78.1562C156.542 83.2396 155.312 86.5521 155.312 88.0938C155.312 88.9688 155.646 89.4062 156.312 89.4062C157.521 89.2396 158.979 88.2708 160.688 86.5C161.312 85.8542 161.927 85.1979 162.531 84.5312C163.156 83.8646 163.542 83.4792 163.688 83.375C163.833 83.25 164.01 83.1875 164.219 83.1875ZM176.156 62.375L175.5 62.2812H175.375C174.854 62.2812 174.312 62.0729 173.75 61.6562C173.208 61.2396 172.938 60.5 172.938 59.4375C172.938 58.375 173.51 57.1667 174.656 55.8125C175.823 54.4583 177.396 53.2188 179.375 52.0938C181.354 50.9479 183.812 50.0104 186.75 49.2812C189.708 48.5521 192.823 48.1875 196.094 48.1875C202.781 48.1875 208 49.5104 211.75 52.1562C215.521 54.7812 217.406 58.1979 217.406 62.4062C217.406 65.0312 216.823 67.6562 215.656 70.2812C214.49 72.9062 212.927 75.3333 210.969 77.5625C209.01 79.7708 206.708 81.8438 204.062 83.7812C201.417 85.6979 198.646 87.3333 195.75 88.6875C189.5 91.5625 183.521 93 177.812 93C175 93 173.229 92.7708 172.5 92.3125C172.229 92.1667 171.958 91.9479 171.688 91.6562C171.438 91.3438 171.24 91.1354 171.094 91.0312C170.698 90.7812 170.5 90.25 170.5 89.4375C170.5 88.6042 170.583 87.8542 170.75 87.1875C171.375 84.9583 174.177 80.125 179.156 72.6875C184.156 65.2292 188.333 59.2188 191.688 54.6562C191.917 54.3438 193.094 54.1146 195.219 53.9688C196.094 53.9688 196.698 54.0312 197.031 54.1562C197.365 54.2812 197.531 54.5104 197.531 54.8438C197.531 55.1562 196.99 56.0729 195.906 57.5938C194.823 59.0938 191.344 64.375 185.469 73.4375C179.594 82.4792 176.656 87.125 176.656 87.375C176.656 87.625 177.573 87.75 179.406 87.75C181.26 87.75 183.531 87.3646 186.219 86.5938C188.927 85.8021 191.469 84.7708 193.844 83.5C196.219 82.2292 198.49 80.7604 200.656 79.0938C202.823 77.4062 204.677 75.6875 206.219 73.9375C209.594 70.1042 211.281 66.6979 211.281 63.7188C211.281 60.7396 209.917 58.2083 207.188 56.125C204.479 54.0417 200.76 53 196.031 53C192.844 53 189.833 53.5312 187 54.5938C184.167 55.6562 182.219 56.6042 181.156 57.4375C180.094 58.2708 179.562 58.8333 179.562 59.125C179.562 59.2917 179.688 59.375 179.938 59.375L181.281 59.125C181.469 59.125 181.562 59.1667 181.562 59.25C181.562 59.3333 181.385 59.4792 181.031 59.6875C180.677 59.8958 180.385 60.125 180.156 60.375C179.948 60.6042 179.406 60.9896 178.531 61.5312C177.656 62.0521 176.865 62.3333 176.156 62.375ZM237.156 69.25C238.74 69.25 239.531 69.7917 239.531 70.875C239.531 71.4583 239.396 71.8854 239.125 72.1562C238.854 72.4271 238.271 73.3333 237.375 74.875C236.5 76.3958 235.521 78.3542 234.438 80.75C233.375 83.125 232.688 85.1562 232.375 86.8438C232.312 87.0521 232.281 87.3438 232.281 87.7188C232.281 88.8646 232.594 89.4375 233.219 89.4375C233.844 89.4375 234.583 89.1458 235.438 88.5625C236.292 87.9583 237.052 87.3229 237.719 86.6562C238.385 85.9688 239.031 85.2708 239.656 84.5625C240.302 83.8542 240.688 83.4479 240.812 83.3438C240.938 83.2396 241.125 83.1875 241.375 83.1875C241.771 83.1875 242.01 83.4896 242.094 84.0938C242.177 84.6979 242.219 85.3229 242.219 85.9688C242.219 86.6146 242.156 87.0625 242.031 87.3125C241.427 88.5 240.094 89.9271 238.031 91.5938C235.99 93.2604 234.125 94.0938 232.438 94.0938C230.771 94.0938 229.542 93.5833 228.75 92.5625C227.958 91.5417 227.562 90.4167 227.562 89.1875C227.562 87.9375 227.771 86.8438 228.188 85.9062C226.458 88.1562 224.469 90.0625 222.219 91.625C219.99 93.1875 218.167 93.9688 216.75 93.9688C215.333 93.9688 214.177 93.5417 213.281 92.6875C212.135 91.625 211.562 90.1562 211.562 88.2812C211.562 86.3854 211.979 84.4896 212.812 82.5938C213.667 80.6771 214.781 78.9375 216.156 77.375C217.531 75.7917 219.042 74.3542 220.688 73.0625C224.146 70.3542 227.333 69 230.25 69C231.375 69 232.292 69.1875 233 69.5625C233.708 69.9375 234.156 70.4062 234.344 70.9688C234.844 70.2188 235.26 69.75 235.594 69.5625C235.948 69.3542 236.469 69.25 237.156 69.25ZM233 72.7188C229.438 72.7188 225.75 74.6979 221.938 78.6562C220.583 80.0729 219.333 81.7708 218.188 83.75C217.062 85.7292 216.5 87.0833 216.5 87.8125C216.5 88.5417 216.708 88.9062 217.125 88.9062C217.708 88.9062 219.333 87.7604 222 85.4688C224.667 83.1562 226.438 81.4583 227.312 80.375C228.271 79.1667 230.167 76.6146 233 72.7188ZM260.875 52.75L262.156 53.0625C262.344 53.0625 262.51 53.1562 262.656 53.3438C262.802 53.5312 262.875 53.7083 262.875 53.875C262.875 54.0417 262.656 54.4896 262.219 55.2188C261.781 55.9479 261.26 56.7812 260.656 57.7188C260.073 58.6354 259.76 59.1354 259.719 59.2188C261.344 59.0938 262.49 59.0312 263.156 59.0312C263.844 59.0312 264.312 59.0833 264.562 59.1875C264.812 59.2708 265.094 59.5312 265.406 59.9688C265.74 60.3854 266.042 60.7083 266.312 60.9375C266.583 61.1458 266.719 61.4688 266.719 61.9062C266.719 62.3438 266.448 62.7188 265.906 63.0312C265.385 63.3229 264.823 63.5 264.219 63.5625C259.385 64.0417 256.719 64.2917 256.219 64.3125C254.531 66.8958 252.167 70.9271 249.125 76.4062C246.104 81.8646 244.5 85.2812 244.312 86.6562C244.229 87.2812 244.188 87.7917 244.188 88.1875C244.188 89 244.615 89.4062 245.469 89.4062C246.323 89.4062 247.271 89.0833 248.312 88.4375C249.354 87.7708 250.312 87.0521 251.188 86.2812C253.521 84.1979 254.771 83.1562 254.938 83.1562C255.479 83.1562 255.75 84.0938 255.75 85.9688C255.75 86.9896 255.281 87.9062 254.344 88.7188C252.24 90.5312 250.469 91.8958 249.031 92.8125C247.594 93.7292 246.156 94.1875 244.719 94.1875C244.406 94.1875 244.115 94.1562 243.844 94.0938C242.177 93.7812 240.948 93.1771 240.156 92.2812C239.385 91.3646 239 90.1354 239 88.5938C239.021 87.0521 239.479 85.1875 240.375 83C241.292 80.7917 242.438 78.4479 243.812 75.9688C246.062 71.9271 248.312 68.1354 250.562 64.5938L249.375 64.75C246.958 65.0208 245.552 65.1562 245.156 65.1562H244.875C244.271 65.1562 243.688 65.0417 243.125 64.8125C242.562 64.5625 242.281 64.2604 242.281 63.9062C242.281 63.5521 242.427 63.2083 242.719 62.875C243.031 62.5417 243.219 62.2812 243.281 62.0938C243.427 61.6354 243.969 61.125 244.906 60.5625C245.865 60 246.583 59.7083 247.062 59.6875C247.542 59.6458 248 59.6146 248.438 59.5938C248.896 59.5729 249.396 59.5521 249.938 59.5312C250.5 59.5104 250.927 59.4896 251.219 59.4688L254.031 59.3438C255.781 56.7188 256.979 55.0312 257.625 54.2812C258.292 53.5312 258.677 53.125 258.781 53.0625C258.885 52.9792 259.094 52.9375 259.406 52.9375L260.875 52.75ZM274.625 69.625C274.625 71 274.062 72.2083 272.938 73.25C271.833 74.2917 270.573 74.8125 269.156 74.8125C268.698 74.8125 268.396 74.7083 268.25 74.5C268.104 74.2708 268.031 73.9792 268.031 73.625C268.031 73.2708 268.073 72.9271 268.156 72.5938C267.406 72.8438 266.573 73.2292 265.656 73.75C264.74 74.2708 263.615 75.0417 262.281 76.0625C260.948 77.0833 260.281 77.8438 260.281 78.3438C260.281 78.5104 260.521 78.5938 261 78.5938C261.5 78.5938 262.26 78.4271 263.281 78.0938C264.302 77.7396 265.01 77.5625 265.406 77.5625C265.823 77.5625 266.094 77.5833 266.219 77.625C266.49 77.7708 266.781 78.0938 267.094 78.5938C267.406 79.0729 267.562 79.4583 267.562 79.75C267.562 80.0208 267.292 80.3854 266.75 80.8438C266.208 81.3021 265.594 81.6562 264.906 81.9062C264.219 82.1354 263.76 82.3125 263.531 82.4375C259.135 84.8958 256.938 86.5833 256.938 87.5C256.938 89.125 258.323 89.9375 261.094 89.9375C262.865 89.9375 264.646 89.375 266.438 88.25C267.958 87.2917 269.323 86.3229 270.531 85.3438C271.76 84.3438 272.531 83.7292 272.844 83.5C273.177 83.2708 273.427 83.1562 273.594 83.1562C274.135 83.1562 274.406 83.7604 274.406 84.9688C274.406 86.1771 274.333 86.9792 274.188 87.375C274.042 87.75 273.625 88.2188 272.938 88.7812C268.479 92.4062 264.26 94.2188 260.281 94.2188C258.156 94.2188 256.458 93.9271 255.188 93.3438C252.854 92.2812 251.688 90.6562 251.688 88.4688C251.688 85.5938 253.677 83.4167 257.656 81.9375C256.865 81.5833 256.354 81.1354 256.125 80.5938C255.896 80.0312 255.781 79.1458 255.781 77.9375C255.781 76.7083 256.344 75.4167 257.469 74.0625C258.615 72.6875 260.01 71.5625 261.656 70.6875C265.323 68.7083 268.594 67.7188 271.469 67.7188C272.156 67.7188 272.854 67.8854 273.562 68.2188C274.271 68.5521 274.625 69.0208 274.625 69.625Z" fill="white"/>
</g>
<defs>
<filter id="filter0_d_601_2215" x="19.9375" y="46.1562" width="258.688" height="71.3125" filterUnits="userSpaceOnUse" color-interpolation-filters="sRGB">
<feFlood flood-opacity="0" result="BackgroundImageFix"/>
<feColorMatrix in="SourceAlpha" type="matrix" values="0 0 0 0 0 0 0 0 0 0 0 0 0 0 0 0 0 0 127 0" result="hardAlpha"/>
<feOffset dy="4"/>
<feGaussianBlur stdDeviation="2"/>
<feComposite in2="hardAlpha" operator="out"/>
<feColorMatrix type="matrix" values="0 0 0 0 0 0 0 0 0 0 0 0 0 0 0 0 0 0 0.25 0"/>
<feBlend mode="normal" in2="BackgroundImageFix" result="effect1_dropShadow_601_2215"/>
<feBlend mode="normal" in="SourceGraphic" in2="effect1_dropShadow_601_2215" result="shape"/>
</filter>
</defs>
</svg>
