<svg width="260" height="106" viewBox="0 0 260 106" fill="none" xmlns="http://www.w3.org/2000/svg">
<g filter="url(#filter0_d_110_672)">
<path fill-rule="evenodd" clip-rule="evenodd" d="M143.442 50.0558C143.561 50.0658 143.649 50.1698 143.639 50.2881C143.043 57.2872 140.503 62.5645 137.797 66.1732C135.802 68.8332 133.713 70.5913 132.239 71.4639C132.227 72.3348 132.201 73.2286 132.161 74.1445C131.86 80.9322 130.746 88.9361 128.249 97.8426C128.217 97.957 128.097 98.024 127.982 97.9922C127.867 97.9603 127.799 97.8418 127.831 97.7274C130.304 88.907 131.415 80.9785 131.722 74.2488C130.487 73.4537 128.926 72.3002 127.248 70.8481C125.484 69.3225 123.59 67.4653 121.807 65.3451C121.211 64.6362 120.627 63.8977 120.065 63.1324C117.536 59.6898 115.438 55.6957 114.611 51.3852C114.588 51.2686 114.665 51.156 114.783 51.1338C114.9 51.1116 115.014 51.1881 115.036 51.3048C115.848 55.534 117.911 59.4698 120.415 62.8791C120.971 63.6364 121.549 64.3674 122.14 65.0696C123.906 67.1701 125.784 69.0112 127.532 70.5241C129.101 71.8811 130.563 72.9723 131.744 73.7486C131.777 72.9263 131.798 72.1223 131.808 71.3373C131.926 62.1593 129.759 49.7559 128.566 46.6778C128.523 46.567 128.578 46.4426 128.69 46.4C128.802 46.3574 128.927 46.4127 128.97 46.5235C130.171 49.6228 132.321 61.9421 132.245 70.9556C133.649 70.0732 135.586 68.4015 137.449 65.9165C140.112 62.366 142.619 57.1639 143.207 50.2519C143.218 50.1336 143.322 50.0458 143.442 50.0558Z" fill="#0A3019"/>
<path fill-rule="evenodd" clip-rule="evenodd" d="M139.325 46.4778C139.409 46.5232 139.44 46.6277 139.394 46.7111C139.09 47.905 139.131 47.9648 138.75 50.5532C138.427 52.7519 138.204 55.2272 138.055 57.633C138.73 55.7051 139.643 53.2245 140.557 50.9796C141.114 49.6108 140.742 50.4908 141.25 49.4725C141.503 48.9634 141.745 48.5183 141.969 48.1611C142.191 47.8072 142.401 47.5273 142.595 47.3593C142.667 47.2968 142.776 47.304 142.839 47.3755C142.902 47.447 142.895 47.5556 142.823 47.6182C142.67 47.7512 142.481 47.9949 142.264 48.3426C142.048 48.6869 141.812 49.1213 141.56 49.625C141.058 50.6322 141.434 49.7431 140.878 51.1084C139.771 53.8284 138.665 56.8975 137.983 58.9026C137.84 61.6387 137.791 64.1975 137.796 66.0443C137.797 66.1393 137.719 66.2166 137.624 66.2168C137.528 66.2171 137.45 66.1403 137.45 66.0453C137.444 64.187 137.494 61.6126 137.638 58.8611C137.783 56.0724 138.026 53.0988 138.407 50.5035C138.787 47.9159 138.657 47.905 139.09 46.5464C139.136 46.463 139.241 46.4323 139.325 46.4778ZM111.487 51.1957C111.57 51.1485 111.676 51.1772 111.724 51.2597C112.418 52.4645 115.17 58.1054 116.476 60.8096C117.946 61.8139 119.356 62.4968 120.3 62.8444C120.39 62.8775 120.436 62.9764 120.403 63.0655C120.369 63.1546 120.27 63.2 120.18 63.167C119.198 62.8059 117.748 62.1006 116.241 61.0667C114.038 59.5537 111.696 57.3239 110.545 54.4179C110.51 54.3295 110.554 54.2296 110.643 54.1949C110.732 54.1602 110.833 54.2037 110.868 54.2921C111.89 56.8738 113.891 58.9214 115.891 60.3944C114.506 57.5336 112.064 52.5438 111.423 51.4303C111.375 51.3479 111.404 51.2428 111.487 51.1957ZM118.823 53.7982C118.893 53.734 119.003 53.7387 119.068 53.8088C119.566 54.3484 119.99 55.154 120.35 56.0894C120.711 57.0276 121.012 58.1102 121.26 59.215C121.755 61.4247 122.037 63.7377 122.146 65.1946C122.153 65.2893 122.082 65.3718 121.986 65.3788C121.891 65.3858 121.808 65.3147 121.801 65.22C121.693 63.7761 121.412 61.48 120.921 59.2897C120.676 58.1946 120.379 57.1294 120.026 56.212C119.672 55.2917 119.267 54.5335 118.812 54.0412C118.748 53.9712 118.752 53.8624 118.823 53.7982ZM124.347 56.1182C124.443 56.1131 124.525 56.1859 124.53 56.2807C124.701 59.4247 126.001 62.5687 127.566 65.2279C129.13 67.8858 130.951 70.0454 132.146 71.2176C132.214 71.2844 132.215 71.3933 132.148 71.4609C132.08 71.5285 131.971 71.5291 131.903 71.4623C130.686 70.2696 128.847 68.0862 127.267 65.4013C125.687 62.7177 124.359 59.5192 124.184 56.2993C124.178 56.2044 124.252 56.1234 124.347 56.1182ZM142.913 61.3483C142.97 61.4249 142.953 61.5325 142.876 61.5887C141.61 62.5097 140.496 64.1812 139.616 65.9186C138.867 67.3963 138.296 68.9043 137.949 69.9994C139.689 68.5923 141.554 66.8477 143.29 64.7799C143.351 64.7069 143.461 64.697 143.534 64.7578C143.608 64.8187 143.618 64.9271 143.557 65.0001C141.657 67.2619 139.607 69.1393 137.731 70.6148C135.308 72.5203 133.171 73.7592 132.017 74.291C131.93 74.331 131.827 74.2936 131.787 74.2075C131.747 74.1213 131.784 74.019 131.871 73.979C132.989 73.4636 135.084 72.2518 137.472 70.3795C137.796 69.2564 138.431 67.4905 139.306 65.7641C140.192 64.015 141.337 62.2823 142.671 61.3113C142.748 61.2551 142.857 61.2717 142.913 61.3483ZM115.531 63.9622C115.568 63.8749 115.67 63.8345 115.758 63.8719C116.088 64.0119 116.578 64.3647 117.141 64.825C117.711 65.2902 118.374 65.8797 119.053 66.5096C120.393 67.7522 121.804 69.1574 122.71 70.0881C124.654 70.4628 126.379 70.55 127.384 70.5142C127.479 70.5108 127.56 70.585 127.563 70.6799C127.567 70.7748 127.492 70.8546 127.396 70.858C126.355 70.8951 124.58 70.8036 122.59 70.4153C120.524 70.0122 118.214 69.2871 116.247 68.0451C116.166 67.9941 116.142 67.8878 116.194 67.8076C116.245 67.7275 116.352 67.7039 116.433 67.7549C118.18 68.8578 120.214 69.548 122.105 69.9633C121.212 69.0562 119.986 67.8458 118.816 66.761C118.14 66.1334 117.483 65.5493 116.921 65.0907C116.353 64.6272 115.899 64.306 115.622 64.1881C115.534 64.1507 115.493 64.0495 115.531 63.9622Z" fill="#0A3019"/>
<ellipse cx="111.617" cy="51.345" rx="1.08333" ry="1.075" fill="#FD5936"/>
<ellipse cx="118.55" cy="53.495" rx="1.08333" ry="1.075" fill="#FD5936"/>
<ellipse cx="124.183" cy="56.075" rx="1.08333" ry="1.075" fill="#FD5936"/>
<ellipse cx="142.817" cy="61.235" rx="1.08333" ry="1.075" fill="#FD5936"/>
<ellipse cx="143.683" cy="64.675" rx="1.08333" ry="1.075" fill="#FD5936"/>
<ellipse cx="115.95" cy="63.815" rx="1.08333" ry="1.075" fill="#FD5936"/>
<ellipse cx="116.383" cy="67.685" rx="1.08333" ry="1.075" fill="#FD5936"/>
<ellipse cx="110.533" cy="54.14" rx="1.3" ry="1.29" fill="#FD5936"/>
<ellipse cx="138.917" cy="47.475" rx="1.08333" ry="1.075" fill="#FD5936"/>
<ellipse cx="142.817" cy="47.905" rx="1.08333" ry="1.075" fill="#FD5936"/>
<path d="M128.421 84.9996C126.78 83.885 125.452 82.824 124.391 81.8225C124.144 81.5894 123.912 81.3596 123.693 81.133C123.278 80.7027 122.912 80.2843 122.592 79.8783C122.038 79.1748 121.621 78.5087 121.32 77.8826C120.993 77.2001 120.803 76.5653 120.723 75.9815C120.625 75.269 120.692 74.6326 120.873 74.0788C121.119 73.3265 121.575 72.7266 122.115 72.2951C122.496 71.9906 122.92 71.7699 123.341 71.639C124.422 71.4003 125.318 71.5183 126.055 71.8997C126.463 72.1109 126.822 72.4028 127.137 72.7597C127.342 72.993 127.528 73.254 127.697 73.5384C127.989 74.0315 128.226 74.5947 128.416 75.205C128.623 75.8687 128.772 76.588 128.873 77.3334C128.966 78.026 129.018 78.7411 129.033 79.4548C129.046 80.0747 129.032 80.6936 128.995 81.2959C128.909 82.6817 128.701 83.9796 128.421 84.9996Z" fill="#FD5936"/>
<g style="mix-blend-mode:multiply">
<path d="M122.263 72.1827L123.83 72.7719L125.872 71.812C125.934 71.8395 125.995 71.8687 126.055 71.8997C126.102 71.9239 126.148 71.9492 126.193 71.9755C126.178 72.0035 126.154 72.0271 126.122 72.0418L123.843 73.1131L122.059 72.4422C122.032 72.4323 122.01 72.4162 121.994 72.3961C122.033 72.3615 122.074 72.3279 122.115 72.2952C122.164 72.2563 122.213 72.2188 122.263 72.1827Z" fill="#FD5936"/>
<path d="M120.827 74.2294C120.842 74.1786 120.857 74.1284 120.873 74.0789C120.89 74.0277 120.907 73.9772 120.926 73.9275L124.418 74.4079L127.029 72.6424C127.066 72.6807 127.101 72.7198 127.137 72.7598C127.171 72.799 127.205 72.839 127.239 72.8798C127.234 72.8833 127.23 72.8866 127.225 72.8897L124.494 74.7358L120.851 74.2346C120.843 74.2334 120.835 74.2317 120.827 74.2294Z" fill="#FD5936"/>
<path d="M120.748 76.1462C120.739 76.0909 120.73 76.036 120.723 75.9816C120.716 75.9292 120.709 75.8772 120.704 75.8256C120.72 75.8237 120.736 75.8241 120.752 75.8271L125.247 76.662L127.568 73.447C127.581 73.4292 127.597 73.4149 127.615 73.4042C127.642 73.4483 127.67 73.4931 127.697 73.5385C127.726 73.5878 127.755 73.6379 127.783 73.6886L125.386 77.0077L120.748 76.1462Z" fill="#FD5936"/>
<path d="M121.413 78.0687C121.381 78.0063 121.35 77.9443 121.32 77.8826C121.298 77.835 121.275 77.7875 121.254 77.7403C121.286 77.7253 121.323 77.721 121.36 77.7305L126.113 78.9516L128.279 75.1281C128.299 75.092 128.332 75.067 128.368 75.0553C128.385 75.1049 128.401 75.1548 128.416 75.205C128.438 75.2742 128.459 75.344 128.479 75.4144L126.269 79.3164L121.413 78.0687Z" fill="#FD5936"/>
<path d="M122.771 80.1005C122.71 80.026 122.65 79.952 122.592 79.8783C122.56 79.8368 122.527 79.7954 122.496 79.7542C122.535 79.7235 122.589 79.7122 122.641 79.7287L126.926 81.0964L128.73 77.267C128.753 77.217 128.8 77.1851 128.851 77.1778C128.859 77.2296 128.866 77.2814 128.873 77.3334C128.886 77.4304 128.898 77.5279 128.91 77.6257L127.094 81.4803L122.771 80.1005Z" fill="#FD5936"/>
<path d="M124.021 81.4651C123.909 81.3536 123.799 81.243 123.693 81.1331C123.656 81.0951 123.62 81.0572 123.584 81.0193C123.631 80.9755 123.701 80.9623 123.762 80.9915L127.59 82.8281L128.885 79.3999C128.908 79.3381 128.966 79.2994 129.029 79.2978C129.03 79.3501 129.032 79.4025 129.033 79.4549C129.036 79.5998 129.037 79.7446 129.038 79.8892L127.764 83.2608L124.021 81.4651Z" fill="#FD5936"/>
</g>
<g style="mix-blend-mode:multiply">
<path d="M128.512 84.6471C128.512 84.6471 128.512 84.647 128.512 84.6471L123.55 71.5967C123.481 71.6093 123.412 71.6234 123.341 71.639C123.275 71.6596 123.208 71.6825 123.142 71.7076L123.144 71.7133L128.223 85.0716L129.885 89.6069C129.925 89.7156 130.046 89.7714 130.155 89.7317C130.264 89.6919 130.321 89.5715 130.281 89.4629L128.619 84.9275L128.512 84.6471Z" fill="#FD5936"/>
</g>
<path d="M134.022 79.4776C135.536 79.107 136.806 78.6901 137.863 78.2442C138.11 78.1404 138.344 78.035 138.568 77.9284C138.992 77.7257 139.377 77.5181 139.725 77.3072C140.327 76.9418 140.818 76.5663 141.213 76.1885C141.643 75.7767 141.959 75.3621 142.179 74.9551C142.449 74.4582 142.576 73.9724 142.597 73.5161C142.625 72.8963 142.457 72.3309 142.179 71.8663C141.984 71.5384 141.734 71.2606 141.461 71.0493C140.733 70.5787 140.041 70.4205 139.394 70.4993C139.036 70.543 138.691 70.6594 138.361 70.8358C138.145 70.951 137.936 71.0919 137.733 71.2548C137.382 71.5374 137.051 71.8862 136.742 72.2827C136.407 72.7139 136.097 73.2015 135.816 73.7217C135.555 74.205 135.319 74.7164 135.11 75.2366C134.929 75.6885 134.767 76.147 134.627 76.5996C134.306 77.6412 134.099 78.6516 134.022 79.4776Z" fill="#FD5936"/>
<g style="mix-blend-mode:multiply">
<path d="M142.102 71.7433L140.787 71.7481L139.553 70.4849C139.5 70.4881 139.447 70.493 139.394 70.4994C139.353 70.5044 139.312 70.5104 139.272 70.5173C139.275 70.5421 139.286 70.566 139.305 70.5854L140.683 71.9951L142.18 71.9897C142.202 71.9896 142.223 71.9838 142.24 71.9737C142.221 71.9374 142.2 71.9016 142.179 71.8664C142.154 71.8245 142.129 71.7835 142.102 71.7433Z" fill="#FD5936"/>
<path d="M142.589 73.6392C142.592 73.598 142.595 73.5569 142.597 73.5161C142.599 73.474 142.6 73.4321 142.6 73.3904L139.901 72.7894L138.472 70.7789C138.435 70.7971 138.398 70.8161 138.361 70.8358C138.325 70.8552 138.289 70.8753 138.253 70.8961C138.255 70.8998 138.257 70.9035 138.26 70.907L139.754 73.0094L142.57 73.6365C142.576 73.6379 142.582 73.6388 142.589 73.6392Z" fill="#FD5936"/>
<path d="M142.115 75.0692C142.137 75.0311 142.159 74.9931 142.179 74.9551C142.199 74.9186 142.218 74.8821 142.237 74.8456C142.226 74.84 142.214 74.8359 142.201 74.8336L138.667 74.219L137.853 71.2227C137.849 71.2062 137.841 71.1913 137.831 71.1786C137.798 71.2035 137.766 71.2289 137.734 71.2549C137.698 71.2832 137.663 71.3121 137.629 71.3417L138.469 74.435L142.115 75.0692Z" fill="#FD5936"/>
<path d="M141.093 76.3C141.134 76.2629 141.174 76.2257 141.213 76.1885C141.243 76.1598 141.272 76.131 141.301 76.1022C141.282 76.0824 141.256 76.069 141.226 76.0659L137.395 75.6647L136.865 72.2638C136.86 72.2317 136.843 72.2045 136.819 72.1858C136.793 72.2178 136.768 72.2501 136.742 72.2827C136.707 72.3277 136.673 72.3733 136.638 72.4194L137.18 75.8901L141.093 76.3Z" fill="#FD5936"/>
<path d="M139.532 77.4217C139.597 77.3837 139.662 77.3455 139.725 77.3073C139.76 77.2857 139.795 77.2641 139.83 77.2425C139.809 77.2091 139.773 77.1861 139.73 77.1841L136.203 77.0184L135.94 73.712C135.936 73.6688 135.911 73.6326 135.876 73.6133C135.856 73.6493 135.836 73.6854 135.816 73.7217C135.78 73.7894 135.744 73.8576 135.708 73.9264L135.973 77.2545L139.532 77.4217Z" fill="#FD5936"/>
<path d="M138.235 78.0827C138.348 78.0316 138.459 77.9802 138.568 77.9284C138.605 77.9105 138.642 77.8926 138.679 77.8746C138.657 77.8297 138.609 77.8007 138.556 77.8056L135.234 78.109V75.2367C135.234 75.1849 135.202 75.1406 135.157 75.1223C135.141 75.1604 135.126 75.1985 135.11 75.2367C135.068 75.3423 135.026 75.4482 134.986 75.5544V78.3794L138.235 78.0827Z" fill="#FD5936"/>
</g>
<g style="mix-blend-mode:multiply">
<path d="M134.052 79.1936C134.052 79.1937 134.052 79.1936 134.052 79.1936L141.318 70.9611C141.366 70.9891 141.413 71.0185 141.461 71.0493C141.504 71.0826 141.546 71.1176 141.588 71.1541L141.585 71.1578L134.147 79.5846L131.667 82.4626C131.608 82.5315 131.504 82.5395 131.434 82.4804C131.365 82.4213 131.357 82.3175 131.416 82.2485L133.896 79.3706L134.052 79.1936Z" fill="#FD5936"/>
</g>
<path d="M102.759 18.6805C93.5351 34.2811 116.952 45.6956 129.813 49.4528C150.055 34.4424 149.184 17.8739 145.106 14.1417C141.844 11.1559 136.975 13.4902 134.948 15.0307C128.376 6.3557 122.157 11.6126 119.869 15.3254C110.768 11.7402 104.67 16.0683 102.759 18.6805Z" fill="#CDCDCD"/>
<path d="M111.561 24.6364C117.533 19.698 124.574 23.6293 127.347 26.2123C129.864 19.0053 133.699 18.7807 136.001 20.1167C146.203 27.1671 133.636 41.8262 125.66 46.9017C114.343 45.7994 104.097 30.8095 111.561 24.6364Z" fill="white"/>
<path fill-rule="evenodd" clip-rule="evenodd" d="M113.954 27.4378C114.112 27.3473 114.314 27.4013 114.405 27.5584L115.729 29.8341C115.821 29.9912 115.767 30.1919 115.609 30.2824C115.451 30.3728 115.249 30.3188 115.158 30.1617L113.833 27.8861C113.742 27.729 113.796 27.5283 113.954 27.4378ZM118.258 27.627C118.416 27.5365 118.618 27.5905 118.709 27.7476L120.199 30.3077C120.29 30.4648 120.236 30.6655 120.078 30.756C119.92 30.8465 119.718 30.7925 119.627 30.6354L118.137 28.0753C118.046 27.9182 118.1 27.7175 118.258 27.627ZM113.129 32.0971C113.256 31.967 113.465 31.9638 113.596 32.09L115.326 33.7536C115.458 33.8798 115.461 34.0876 115.335 34.2177C115.208 34.3479 114.999 34.3511 114.867 34.2249L113.137 32.5613C113.006 32.4351 113.002 32.2273 113.129 32.0971ZM131.921 23.2629C132.103 23.2623 132.252 23.4087 132.253 23.59L132.268 26.2365C132.269 26.4178 132.122 26.5653 131.939 26.5659C131.757 26.5665 131.608 26.42 131.607 26.2387L131.592 23.5922C131.591 23.411 131.738 23.2635 131.921 23.2629ZM117.46 31.4977C117.618 31.4072 117.82 31.4612 117.911 31.6183L119.07 33.6095C119.161 33.7666 119.107 33.9673 118.949 34.0578C118.791 34.1483 118.589 34.0942 118.498 33.9371L117.339 31.9459C117.248 31.7888 117.302 31.5881 117.46 31.4977ZM124.253 29.1538C124.434 29.1325 124.598 29.2612 124.62 29.4412L124.921 31.9239C124.943 32.1039 124.814 32.2671 124.632 32.2884C124.451 32.3097 124.287 32.181 124.265 32.0009L123.964 29.5183C123.942 29.3382 124.072 29.175 124.253 29.1538ZM127.57 30.2837C127.751 30.2581 127.919 30.3827 127.945 30.5622L128.2 32.3121C128.227 32.4916 128.102 32.6579 127.921 32.6836C127.74 32.7092 127.573 32.5845 127.546 32.4051L127.291 30.6551C127.265 30.4757 127.39 30.3094 127.57 30.2837ZM131.932 28.5564C132.114 28.5458 132.271 28.6838 132.282 28.8648L132.462 31.7958C132.473 31.9767 132.335 32.1321 132.152 32.1428C131.97 32.1534 131.814 32.0154 131.803 31.8344L131.622 28.9034C131.611 28.7224 131.75 28.5671 131.932 28.5564ZM118.076 37.2156C118.223 37.1083 118.429 37.1398 118.538 37.286L120.313 39.6823C120.422 39.8284 120.39 40.0339 120.243 40.1411C120.097 40.2484 119.89 40.2169 119.781 40.0707L118.006 37.6744C117.898 37.5283 117.929 37.3228 118.076 37.2156ZM120.68 35.7214C120.838 35.6309 121.04 35.6849 121.131 35.842L122.786 38.6866C122.878 38.8437 122.824 39.0444 122.666 39.1349C122.508 39.2253 122.306 39.1713 122.214 39.0142L120.559 36.1696C120.468 36.0125 120.522 35.8118 120.68 35.7214ZM124.818 35.6261C124.976 35.5356 125.178 35.5896 125.27 35.7467L126.759 38.3069C126.851 38.464 126.797 38.6647 126.639 38.7551C126.481 38.8456 126.279 38.7916 126.187 38.6345L124.698 36.0744C124.606 35.9173 124.66 35.7166 124.818 35.6261ZM135.017 30.5819C135.199 30.5712 135.355 30.7093 135.367 30.8903L135.457 32.3558C135.468 32.5367 135.329 32.6921 135.147 32.7028C134.965 32.7134 134.808 32.5754 134.797 32.3944L134.707 30.9289C134.696 30.7479 134.835 30.5926 135.017 30.5819ZM132.002 33.8495C132.185 33.8614 132.323 34.0177 132.311 34.1986L132.161 36.5606C132.149 36.7415 131.992 36.8785 131.81 36.8667C131.628 36.8548 131.49 36.6985 131.501 36.5176L131.652 34.1556C131.663 33.9747 131.82 33.8377 132.002 33.8495ZM134.423 34.0101C134.602 34.0454 134.719 34.2182 134.683 34.396L134.006 37.8184C133.971 37.9963 133.797 38.1117 133.618 38.0764C133.439 38.041 133.322 37.8682 133.357 37.6904L134.035 34.268C134.07 34.0902 134.244 33.9747 134.423 34.0101Z" fill="#CDCDCD"/>
<path d="M128.058 42.2471C121.99 41.7788 116.696 42.8144 114.95 43.3089L122.594 47.2735L130.434 49.6088L135.777 45.0307L139.931 40.3752C137.006 39.017 130.797 41.0572 128.058 42.2471Z" fill="#9B9B9B"/>
<g style="mix-blend-mode:multiply">
<path d="M102.759 18.6805C93.5351 34.2811 116.952 45.6956 129.813 49.4528C150.055 34.4424 149.184 17.8739 145.106 14.1417C141.844 11.1559 136.975 13.4902 134.948 15.0307C128.376 6.3557 122.157 11.6126 119.869 15.3254C110.768 11.7402 104.67 16.0683 102.759 18.6805Z" fill="#FD5936"/>
<path d="M111.561 24.6364C117.533 19.698 124.574 23.6293 127.347 26.2123C129.864 19.0053 133.699 18.7807 136.001 20.1167C146.203 27.1671 133.636 41.8262 125.66 46.9017C114.343 45.7994 104.097 30.8095 111.561 24.6364Z" fill="#FD5936"/>
<path fill-rule="evenodd" clip-rule="evenodd" d="M113.954 27.4378C114.112 27.3473 114.314 27.4013 114.405 27.5584L115.729 29.8341C115.821 29.9912 115.767 30.1919 115.609 30.2824C115.451 30.3728 115.249 30.3188 115.158 30.1617L113.833 27.8861C113.742 27.729 113.796 27.5283 113.954 27.4378ZM118.258 27.627C118.416 27.5365 118.618 27.5905 118.709 27.7476L120.199 30.3077C120.29 30.4648 120.236 30.6655 120.078 30.756C119.92 30.8465 119.718 30.7925 119.627 30.6354L118.137 28.0753C118.046 27.9182 118.1 27.7175 118.258 27.627ZM113.129 32.0971C113.256 31.967 113.465 31.9638 113.596 32.09L115.326 33.7536C115.458 33.8798 115.461 34.0876 115.335 34.2177C115.208 34.3479 114.999 34.3511 114.867 34.2249L113.137 32.5613C113.006 32.4351 113.002 32.2273 113.129 32.0971ZM131.921 23.2629C132.103 23.2623 132.252 23.4087 132.253 23.59L132.268 26.2365C132.269 26.4178 132.122 26.5653 131.939 26.5659C131.757 26.5665 131.608 26.42 131.607 26.2387L131.592 23.5922C131.591 23.411 131.738 23.2635 131.921 23.2629ZM117.46 31.4977C117.618 31.4072 117.82 31.4612 117.911 31.6183L119.07 33.6095C119.161 33.7666 119.107 33.9673 118.949 34.0578C118.791 34.1483 118.589 34.0942 118.498 33.9371L117.339 31.9459C117.248 31.7888 117.302 31.5881 117.46 31.4977ZM124.253 29.1538C124.434 29.1325 124.598 29.2612 124.62 29.4412L124.921 31.9239C124.943 32.1039 124.814 32.2671 124.632 32.2884C124.451 32.3097 124.287 32.181 124.265 32.0009L123.964 29.5183C123.942 29.3382 124.072 29.175 124.253 29.1538ZM127.57 30.2837C127.751 30.2581 127.919 30.3827 127.945 30.5622L128.2 32.3121C128.227 32.4916 128.102 32.6579 127.921 32.6836C127.74 32.7092 127.573 32.5845 127.546 32.4051L127.291 30.6551C127.265 30.4757 127.39 30.3094 127.57 30.2837ZM131.932 28.5564C132.114 28.5458 132.271 28.6838 132.282 28.8648L132.462 31.7958C132.473 31.9767 132.335 32.1321 132.152 32.1428C131.97 32.1534 131.814 32.0154 131.803 31.8344L131.622 28.9034C131.611 28.7224 131.75 28.5671 131.932 28.5564ZM118.076 37.2156C118.223 37.1083 118.429 37.1398 118.538 37.286L120.313 39.6823C120.422 39.8284 120.39 40.0339 120.243 40.1411C120.097 40.2484 119.89 40.2169 119.781 40.0707L118.006 37.6744C117.898 37.5283 117.929 37.3228 118.076 37.2156ZM120.68 35.7214C120.838 35.6309 121.04 35.6849 121.131 35.842L122.786 38.6866C122.878 38.8437 122.824 39.0444 122.666 39.1349C122.508 39.2253 122.306 39.1713 122.214 39.0142L120.559 36.1696C120.468 36.0125 120.522 35.8118 120.68 35.7214ZM124.818 35.6261C124.976 35.5356 125.178 35.5896 125.27 35.7467L126.759 38.3069C126.851 38.464 126.797 38.6647 126.639 38.7551C126.481 38.8456 126.279 38.7916 126.187 38.6345L124.698 36.0744C124.606 35.9173 124.66 35.7166 124.818 35.6261ZM135.017 30.5819C135.199 30.5712 135.355 30.7093 135.367 30.8903L135.457 32.3558C135.468 32.5367 135.329 32.6921 135.147 32.7028C134.965 32.7134 134.808 32.5754 134.797 32.3944L134.707 30.9289C134.696 30.7479 134.835 30.5926 135.017 30.5819ZM132.002 33.8495C132.185 33.8614 132.323 34.0177 132.311 34.1986L132.161 36.5606C132.149 36.7415 131.992 36.8785 131.81 36.8667C131.628 36.8548 131.49 36.6985 131.501 36.5176L131.652 34.1556C131.663 33.9747 131.82 33.8377 132.002 33.8495ZM134.423 34.0101C134.602 34.0454 134.719 34.2182 134.683 34.396L134.006 37.8184C133.971 37.9963 133.797 38.1117 133.618 38.0764C133.439 38.041 133.322 37.8682 133.357 37.6904L134.035 34.268C134.07 34.0902 134.244 33.9747 134.423 34.0101Z" fill="#FD5936"/>
<path d="M128.058 42.2471C121.99 41.7788 116.696 42.8144 114.95 43.3089L122.594 47.2735L130.434 49.6088L135.777 45.0307L139.931 40.3752C137.006 39.017 130.797 41.0572 128.058 42.2471Z" fill="#FD5936"/>
</g>
<g style="mix-blend-mode:soft-light">
<path d="M102.759 18.6805C93.5351 34.2811 116.952 45.6956 129.813 49.4528C150.055 34.4424 149.184 17.8739 145.106 14.1417C141.844 11.1559 136.975 13.4902 134.948 15.0307C128.376 6.3557 122.157 11.6126 119.869 15.3254C110.768 11.7402 104.67 16.0683 102.759 18.6805Z" fill="#FD5936"/>
<path d="M111.561 24.6364C117.533 19.698 124.574 23.6293 127.347 26.2123C129.864 19.0053 133.699 18.7807 136.001 20.1167C146.203 27.1671 133.636 41.8262 125.66 46.9017C114.343 45.7994 104.097 30.8095 111.561 24.6364Z" fill="#FD5936"/>
<path fill-rule="evenodd" clip-rule="evenodd" d="M113.954 27.4378C114.112 27.3473 114.314 27.4013 114.405 27.5584L115.729 29.8341C115.821 29.9912 115.767 30.1919 115.609 30.2824C115.451 30.3728 115.249 30.3188 115.158 30.1617L113.833 27.8861C113.742 27.729 113.796 27.5283 113.954 27.4378ZM118.258 27.627C118.416 27.5365 118.618 27.5905 118.709 27.7476L120.199 30.3077C120.29 30.4648 120.236 30.6655 120.078 30.756C119.92 30.8465 119.718 30.7925 119.627 30.6354L118.137 28.0753C118.046 27.9182 118.1 27.7175 118.258 27.627ZM113.129 32.0971C113.256 31.967 113.465 31.9638 113.596 32.09L115.326 33.7536C115.458 33.8798 115.461 34.0876 115.335 34.2177C115.208 34.3479 114.999 34.3511 114.867 34.2249L113.137 32.5613C113.006 32.4351 113.002 32.2273 113.129 32.0971ZM131.921 23.2629C132.103 23.2623 132.252 23.4087 132.253 23.59L132.268 26.2365C132.269 26.4178 132.122 26.5653 131.939 26.5659C131.757 26.5665 131.608 26.42 131.607 26.2387L131.592 23.5922C131.591 23.411 131.738 23.2635 131.921 23.2629ZM117.46 31.4977C117.618 31.4072 117.82 31.4612 117.911 31.6183L119.07 33.6095C119.161 33.7666 119.107 33.9673 118.949 34.0578C118.791 34.1483 118.589 34.0942 118.498 33.9371L117.339 31.9459C117.248 31.7888 117.302 31.5881 117.46 31.4977ZM124.253 29.1538C124.434 29.1325 124.598 29.2612 124.62 29.4412L124.921 31.9239C124.943 32.1039 124.814 32.2671 124.632 32.2884C124.451 32.3097 124.287 32.181 124.265 32.0009L123.964 29.5183C123.942 29.3382 124.072 29.175 124.253 29.1538ZM127.57 30.2837C127.751 30.2581 127.919 30.3827 127.945 30.5622L128.2 32.3121C128.227 32.4916 128.102 32.6579 127.921 32.6836C127.74 32.7092 127.573 32.5845 127.546 32.4051L127.291 30.6551C127.265 30.4757 127.39 30.3094 127.57 30.2837ZM131.932 28.5564C132.114 28.5458 132.271 28.6838 132.282 28.8648L132.462 31.7958C132.473 31.9767 132.335 32.1321 132.152 32.1428C131.97 32.1534 131.814 32.0154 131.803 31.8344L131.622 28.9034C131.611 28.7224 131.75 28.5671 131.932 28.5564ZM118.076 37.2156C118.223 37.1083 118.429 37.1398 118.538 37.286L120.313 39.6823C120.422 39.8284 120.39 40.0339 120.243 40.1411C120.097 40.2484 119.89 40.2169 119.781 40.0707L118.006 37.6744C117.898 37.5283 117.929 37.3228 118.076 37.2156ZM120.68 35.7214C120.838 35.6309 121.04 35.6849 121.131 35.842L122.786 38.6866C122.878 38.8437 122.824 39.0444 122.666 39.1349C122.508 39.2253 122.306 39.1713 122.214 39.0142L120.559 36.1696C120.468 36.0125 120.522 35.8118 120.68 35.7214ZM124.818 35.6261C124.976 35.5356 125.178 35.5896 125.27 35.7467L126.759 38.3069C126.851 38.464 126.797 38.6647 126.639 38.7551C126.481 38.8456 126.279 38.7916 126.187 38.6345L124.698 36.0744C124.606 35.9173 124.66 35.7166 124.818 35.6261ZM135.017 30.5819C135.199 30.5712 135.355 30.7093 135.367 30.8903L135.457 32.3558C135.468 32.5367 135.329 32.6921 135.147 32.7028C134.965 32.7134 134.808 32.5754 134.797 32.3944L134.707 30.9289C134.696 30.7479 134.835 30.5926 135.017 30.5819ZM132.002 33.8495C132.185 33.8614 132.323 34.0177 132.311 34.1986L132.161 36.5606C132.149 36.7415 131.992 36.8785 131.81 36.8667C131.628 36.8548 131.49 36.6985 131.501 36.5176L131.652 34.1556C131.663 33.9747 131.82 33.8377 132.002 33.8495ZM134.423 34.0101C134.602 34.0454 134.719 34.2182 134.683 34.396L134.006 37.8184C133.971 37.9963 133.797 38.1117 133.618 38.0764C133.439 38.041 133.322 37.8682 133.357 37.6904L134.035 34.268C134.07 34.0902 134.244 33.9747 134.423 34.0101Z" fill="#FD5936"/>
<path d="M128.058 42.2471C121.99 41.7788 116.696 42.8144 114.95 43.3089L122.594 47.2735L130.434 49.6088L135.777 45.0307L139.931 40.3752C137.006 39.017 130.797 41.0572 128.058 42.2471Z" fill="#FD5936"/>
</g>
</g>
<g filter="url(#filter1_d_110_672)">
<path d="M54.7812 26.1562C54.7812 27.2188 54.1042 28.5 52.75 30C51.3958 31.5 49.7188 32.9271 47.7188 34.2812C45.7396 35.6354 43.7708 36.7083 41.8125 37.5C42.25 37.3542 42.6979 37.2812 43.1562 37.2812C44.6979 37.2812 45.7188 37.5625 46.2188 38.125C46.3438 38.25 46.4062 38.3958 46.4062 38.5625C46.4062 38.7292 46.125 39.1354 45.5625 39.7812C39.7083 46.5521 34.3333 53.2708 29.4375 59.9375C31.4375 58.375 33.2083 56.8854 34.75 55.4688C35.6042 54.6979 36.6458 54.3125 37.875 54.3125C38.7708 54.3125 39.3229 54.4271 39.5312 54.6562C39.7396 54.8854 39.8438 55.0833 39.8438 55.25C39.8438 55.3958 39.7083 55.5729 39.4375 55.7812C35.9583 58.8229 30.2812 63.2604 22.4062 69.0938C21.0521 70.6146 17.6354 74.2396 12.1562 79.9688C11.1771 80.9688 10.0938 81.4688 8.90625 81.4688C6.59375 81.4688 5.4375 80.8229 5.4375 79.5312C5.4375 78.9688 5.88542 78.0729 6.78125 76.8438C8.07292 74.9479 11.2292 72.0833 16.25 68.25C17.3542 67.0208 19.2604 64.9375 21.9688 62C27.0938 56.4167 30.1875 52.8333 31.25 51.25C28.4167 53.9375 26.2708 55.8333 24.8125 56.9375C23.3542 58.0417 22 59 20.75 59.8125C19.5208 60.625 18.3854 61.2812 17.3438 61.7812C12.3021 64.1979 8.70833 64.2083 6.5625 61.8125C5.47917 60.625 4.9375 58.8854 4.9375 56.5938C4.9375 54.2812 5.57292 51.7396 6.84375 48.9688C8.11458 46.1979 9.8125 43.4688 11.9375 40.7812C14.0625 38.0729 16.5833 35.4375 19.5 32.875C22.4167 30.3125 25.4479 28.0625 28.5938 26.125C31.7396 24.1875 35.0521 22.6354 38.5312 21.4688C42.0104 20.2812 45.2917 19.6875 48.375 19.6875C49.4375 19.6875 50.4375 19.8646 51.375 20.2188C52.3125 20.5729 52.9792 20.9479 53.375 21.3438C54.3125 22.2812 54.7812 23.8854 54.7812 26.1562ZM36.7188 32.6875L36.5625 33.3125C36.5625 33.6667 36.8021 33.8438 37.2812 33.8438C38.5521 33.8438 40.2917 33.2292 42.5 32C44.7083 30.7708 46.4896 29.5104 47.8438 28.2188C49.1979 26.9271 49.875 25.8542 49.875 25C49.875 24.2708 49.2292 23.9062 47.9375 23.9062C45.6458 23.9062 43.0625 24.4688 40.1875 25.5938C37.3333 26.7188 34.5417 28.1771 31.8125 29.9688C29.0833 31.7604 26.3958 33.8229 23.75 36.1562C21.1042 38.4688 18.7917 40.7917 16.8125 43.125C14.8542 45.4375 13.2708 47.7083 12.0625 49.9375C10.8542 52.1667 10.25 54.0729 10.25 55.6562C10.25 56.2812 10.4271 56.8333 10.7812 57.3125C11.1562 57.7917 11.6979 58.0312 12.4062 58.0312C14.5938 58.0312 18.1146 56.3542 22.9688 53C27.8438 49.6458 33.4375 45.0729 39.75 39.2812C39.8333 39.1979 39.9792 39.0417 40.1875 38.8125C40.6458 38.25 41.1146 37.8438 41.5938 37.5938C39.8854 38.2812 38.4896 38.625 37.4062 38.625C36.3229 38.625 35.4271 38.3854 34.7188 37.9062C34.0104 37.4271 33.6562 36.7812 33.6562 35.9688C33.6562 35.1354 34.0208 34.3542 34.75 33.625C35.4792 32.8958 35.9896 32.5312 36.2812 32.5312C36.5729 32.5312 36.7188 32.5833 36.7188 32.6875ZM54.1562 47.9688C59.0729 42.3854 63.2604 39.5938 66.7188 39.5938C67.5729 39.5938 68.2708 39.8542 68.8125 40.375C69.375 40.875 69.6562 41.5312 69.6562 42.3438C69.6562 43.1562 69.0729 44.5208 67.9062 46.4375C66.7604 48.3333 65.6979 49.9375 64.7188 51.25C64.1979 51.9167 63.6042 52.25 62.9375 52.25C62.2917 52.25 61.7812 52.0104 61.4062 51.5312C61.0521 51.0521 60.875 50.4896 60.875 49.8438C60.875 48.4062 61.6458 46.7812 63.1875 44.9688L63.125 44.9062C62.4375 44.9688 60.7292 46.3229 58 48.9688C55.2917 51.6146 52.9792 53.9896 51.0625 56.0938C49.1667 58.1771 47.1042 60.7188 44.875 63.7188C44.2292 64.6146 43.6771 65.0625 43.2188 65.0625C42.7812 65.0625 42.1979 64.9271 41.4688 64.6562C40.7188 64.3646 40.2708 64.1562 40.125 64.0312C39.9583 63.9062 39.875 63.6979 39.875 63.4062C39.875 63.1146 39.9583 62.7812 40.125 62.4062C40.2917 62.0104 40.6042 61.4583 41.0625 60.75C41.5 60.0417 42.1667 58.8958 43.0625 57.3125C43.9792 55.7292 45.3958 53.3333 47.3125 50.125C49.2292 46.9167 50.375 44.9792 50.75 44.3125C51.5417 42.9375 52.1875 41.9375 52.6875 41.3125C53.625 40.125 55.2083 39.5312 57.4375 39.5312C57.9375 39.5312 58.1875 39.8438 58.1875 40.4688C58.1875 41.4479 57.2812 43.2917 55.4688 46L54.1562 47.9688ZM90.1562 41.25C91.7396 41.25 92.5312 41.7917 92.5312 42.875C92.5312 43.4583 92.3958 43.8854 92.125 44.1562C91.8542 44.4271 91.2708 45.3333 90.375 46.875C89.5 48.3958 88.5208 50.3542 87.4375 52.75C86.375 55.125 85.6875 57.1562 85.375 58.8438C85.3125 59.0521 85.2812 59.3438 85.2812 59.7188C85.2812 60.8646 85.5938 61.4375 86.2188 61.4375C86.8438 61.4375 87.5833 61.1458 88.4375 60.5625C89.2917 59.9583 90.0521 59.3229 90.7188 58.6562C91.3854 57.9688 92.0312 57.2708 92.6562 56.5625C93.3021 55.8542 93.6875 55.4479 93.8125 55.3438C93.9375 55.2396 94.125 55.1875 94.375 55.1875C94.7708 55.1875 95.0104 55.4896 95.0938 56.0938C95.1771 56.6979 95.2188 57.3229 95.2188 57.9688C95.2188 58.6146 95.1562 59.0625 95.0312 59.3125C94.4271 60.5 93.0938 61.9271 91.0312 63.5938C88.9896 65.2604 87.125 66.0938 85.4375 66.0938C83.7708 66.0938 82.5417 65.5833 81.75 64.5625C80.9583 63.5417 80.5625 62.4167 80.5625 61.1875C80.5625 59.9375 80.7708 58.8438 81.1875 57.9062C79.4583 60.1562 77.4688 62.0625 75.2188 63.625C72.9896 65.1875 71.1667 65.9688 69.75 65.9688C68.3333 65.9688 67.1771 65.5417 66.2812 64.6875C65.1354 63.625 64.5625 62.1562 64.5625 60.2812C64.5625 58.3854 64.9792 56.4896 65.8125 54.5938C66.6667 52.6771 67.7812 50.9375 69.1562 49.375C70.5312 47.7917 72.0417 46.3542 73.6875 45.0625C77.1458 42.3542 80.3333 41 83.25 41C84.375 41 85.2917 41.1875 86 41.5625C86.7083 41.9375 87.1562 42.4062 87.3438 42.9688C87.8438 42.2188 88.2604 41.75 88.5938 41.5625C88.9479 41.3542 89.4688 41.25 90.1562 41.25ZM86 44.7188C82.4375 44.7188 78.75 46.6979 74.9375 50.6562C73.5833 52.0729 72.3333 53.7708 71.1875 55.75C70.0625 57.7292 69.5 59.0833 69.5 59.8125C69.5 60.5417 69.7083 60.9062 70.125 60.9062C70.7083 60.9062 72.3333 59.7604 75 57.4688C77.6667 55.1562 79.4375 53.4583 80.3125 52.375C81.2708 51.1667 83.1667 48.6146 86 44.7188ZM131.625 18.1562C132.021 18.1562 132.333 18.2812 132.562 18.5312C132.792 18.7812 132.906 19.0417 132.906 19.3125C132.906 19.5625 132.698 20.0417 132.281 20.75C131.885 21.4375 130.958 22.9583 129.5 25.3125C128.042 27.6458 126.906 29.4792 126.094 30.8125C121.365 38.5 117.656 45 114.969 50.3125C112.281 55.625 110.938 58.8333 110.938 59.9375V60.1875C110.938 61.0417 111.25 61.4688 111.875 61.4688C112.5 61.4688 113.25 61.1771 114.125 60.5938C115.021 60.0104 115.802 59.3854 116.469 58.7188C117.135 58.0521 117.802 57.3646 118.469 56.6562C119.156 55.9271 119.573 55.5 119.719 55.375C119.865 55.25 120.052 55.1875 120.281 55.1875C120.635 55.1875 120.865 55.4167 120.969 55.875C121.073 56.3125 121.125 56.9375 121.125 57.75C121.125 58.5417 121.062 59.0625 120.938 59.3125C120.333 60.4792 119 61.9062 116.938 63.5938C114.896 65.2604 112.958 66.0938 111.125 66.0938C108 66.0938 106.438 64.7708 106.438 62.125C106.438 60.4792 107.062 58.3229 108.312 55.6562C106.625 57.8438 104.906 59.7083 103.156 61.25C99.9062 64.0833 97.0833 65.5 94.6875 65.5C93.3542 65.5 92.3646 65.0312 91.7188 64.0938C91.0938 63.1562 90.7812 61.8125 90.7812 60.0625C90.7812 58.2917 91.4688 56.1771 92.8438 53.7188C94.2188 51.2604 95.9271 49.0521 97.9688 47.0938C100.031 45.1146 102.312 43.4688 104.812 42.1562C107.312 40.8229 109.615 40.1562 111.719 40.1562C112.385 40.1562 113.167 40.5625 114.062 41.375C114.667 40.4167 115.781 38.5 117.406 35.625C122.51 27.0208 125.885 21.7708 127.531 19.875C128.406 18.7292 129.771 18.1562 131.625 18.1562ZM112.156 44.3125C109.156 44.9792 106.365 46.375 103.781 48.5C101.198 50.625 99.2604 52.8542 97.9688 55.1875C96.6771 57.5 96.0312 59 96.0312 59.6875C96.0312 60.375 96.1771 60.7188 96.4688 60.7188C97.7188 60.7188 100.812 57.9271 105.75 52.3438C108.208 49.5938 110.344 46.9167 112.156 44.3125ZM145.219 55.1875C145.615 55.1875 145.854 55.4896 145.938 56.0938C146.021 56.6979 146.062 57.3229 146.062 57.9688C146.062 58.6146 146 59.0625 145.875 59.3125C145.271 60.4792 143.948 61.9062 141.906 63.5938C139.865 65.2604 137.927 66.0938 136.094 66.0938C134.969 66.0938 133.927 65.75 132.969 65.0625C132.01 64.3958 131.531 63.2188 131.531 61.5312C131.531 59.8438 131.979 58.1875 132.875 56.5625C127.708 63.0417 123.656 66.2812 120.719 66.2812C119.552 66.2812 118.604 65.8646 117.875 65.0312C117.167 64.1979 116.812 63.3438 116.812 62.4688C116.812 61.5729 116.938 60.6562 117.188 59.7188C117.438 58.7604 117.698 57.9062 117.969 57.1562C118.26 56.4062 118.677 55.4792 119.219 54.375C119.781 53.2708 120.198 52.4688 120.469 51.9688C120.74 51.4688 121.167 50.7188 121.75 49.7188C122.354 48.6979 123.135 47.3333 124.094 45.625C125.073 43.9167 125.875 42.6562 126.5 41.8438C127.146 41.0104 127.771 40.5938 128.375 40.5938C128.979 40.5729 129.51 40.8125 129.969 41.3125C130.427 41.8125 130.656 42.2188 130.656 42.5312C130.656 42.8438 129.958 44.25 128.562 46.75C124.438 54.2083 122.375 58.5521 122.375 59.7812C122.375 60.0938 122.49 60.25 122.719 60.25C123.719 60.25 126.208 58.0833 130.188 53.75C134.167 49.4167 136.469 46.6458 137.094 45.4375C137.719 44.2083 138.323 43.1771 138.906 42.3438C139.51 41.5104 139.958 41 140.25 40.8125C141.146 40.2292 142.302 39.9167 143.719 39.875C143.948 39.875 144.125 39.8854 144.25 39.9062C144.375 39.9271 144.521 40.1042 144.688 40.4375C144.854 40.7708 144.938 41.0312 144.938 41.2188C144.75 41.8021 143.917 43.3542 142.438 45.875C140.979 48.3958 140.167 49.8229 140 50.1562C137.542 55.2396 136.312 58.5521 136.312 60.0938C136.312 60.9688 136.646 61.4062 137.312 61.4062C138.521 61.2396 139.979 60.2708 141.688 58.5C142.312 57.8542 142.927 57.1979 143.531 56.5312C144.156 55.8646 144.542 55.4792 144.688 55.375C144.833 55.25 145.01 55.1875 145.219 55.1875ZM157.156 34.375L156.5 34.2812H156.375C155.854 34.2812 155.312 34.0729 154.75 33.6562C154.208 33.2396 153.938 32.5 153.938 31.4375C153.938 30.375 154.51 29.1667 155.656 27.8125C156.823 26.4583 158.396 25.2188 160.375 24.0938C162.354 22.9479 164.812 22.0104 167.75 21.2812C170.708 20.5521 173.823 20.1875 177.094 20.1875C183.781 20.1875 189 21.5104 192.75 24.1562C196.521 26.7812 198.406 30.1979 198.406 34.4062C198.406 37.0312 197.823 39.6562 196.656 42.2812C195.49 44.9062 193.927 47.3333 191.969 49.5625C190.01 51.7708 187.708 53.8438 185.062 55.7812C182.417 57.6979 179.646 59.3333 176.75 60.6875C170.5 63.5625 164.521 65 158.812 65C156 65 154.229 64.7708 153.5 64.3125C153.229 64.1667 152.958 63.9479 152.688 63.6562C152.438 63.3438 152.24 63.1354 152.094 63.0312C151.698 62.7812 151.5 62.25 151.5 61.4375C151.5 60.6042 151.583 59.8542 151.75 59.1875C152.375 56.9583 155.177 52.125 160.156 44.6875C165.156 37.2292 169.333 31.2188 172.688 26.6562C172.917 26.3438 174.094 26.1146 176.219 25.9688C177.094 25.9688 177.698 26.0312 178.031 26.1562C178.365 26.2812 178.531 26.5104 178.531 26.8438C178.531 27.1562 177.99 28.0729 176.906 29.5938C175.823 31.0938 172.344 36.375 166.469 45.4375C160.594 54.4792 157.656 59.125 157.656 59.375C157.656 59.625 158.573 59.75 160.406 59.75C162.26 59.75 164.531 59.3646 167.219 58.5938C169.927 57.8021 172.469 56.7708 174.844 55.5C177.219 54.2292 179.49 52.7604 181.656 51.0938C183.823 49.4062 185.677 47.6875 187.219 45.9375C190.594 42.1042 192.281 38.6979 192.281 35.7188C192.281 32.7396 190.917 30.2083 188.188 28.125C185.479 26.0417 181.76 25 177.031 25C173.844 25 170.833 25.5312 168 26.5938C165.167 27.6562 163.219 28.6042 162.156 29.4375C161.094 30.2708 160.562 30.8333 160.562 31.125C160.562 31.2917 160.688 31.375 160.938 31.375L162.281 31.125C162.469 31.125 162.562 31.1667 162.562 31.25C162.562 31.3333 162.385 31.4792 162.031 31.6875C161.677 31.8958 161.385 32.125 161.156 32.375C160.948 32.6042 160.406 32.9896 159.531 33.5312C158.656 34.0521 157.865 34.3333 157.156 34.375ZM218.156 41.25C219.74 41.25 220.531 41.7917 220.531 42.875C220.531 43.4583 220.396 43.8854 220.125 44.1562C219.854 44.4271 219.271 45.3333 218.375 46.875C217.5 48.3958 216.521 50.3542 215.438 52.75C214.375 55.125 213.688 57.1562 213.375 58.8438C213.312 59.0521 213.281 59.3438 213.281 59.7188C213.281 60.8646 213.594 61.4375 214.219 61.4375C214.844 61.4375 215.583 61.1458 216.438 60.5625C217.292 59.9583 218.052 59.3229 218.719 58.6562C219.385 57.9688 220.031 57.2708 220.656 56.5625C221.302 55.8542 221.688 55.4479 221.812 55.3438C221.938 55.2396 222.125 55.1875 222.375 55.1875C222.771 55.1875 223.01 55.4896 223.094 56.0938C223.177 56.6979 223.219 57.3229 223.219 57.9688C223.219 58.6146 223.156 59.0625 223.031 59.3125C222.427 60.5 221.094 61.9271 219.031 63.5938C216.99 65.2604 215.125 66.0938 213.438 66.0938C211.771 66.0938 210.542 65.5833 209.75 64.5625C208.958 63.5417 208.562 62.4167 208.562 61.1875C208.562 59.9375 208.771 58.8438 209.188 57.9062C207.458 60.1562 205.469 62.0625 203.219 63.625C200.99 65.1875 199.167 65.9688 197.75 65.9688C196.333 65.9688 195.177 65.5417 194.281 64.6875C193.135 63.625 192.562 62.1562 192.562 60.2812C192.562 58.3854 192.979 56.4896 193.812 54.5938C194.667 52.6771 195.781 50.9375 197.156 49.375C198.531 47.7917 200.042 46.3542 201.688 45.0625C205.146 42.3542 208.333 41 211.25 41C212.375 41 213.292 41.1875 214 41.5625C214.708 41.9375 215.156 42.4062 215.344 42.9688C215.844 42.2188 216.26 41.75 216.594 41.5625C216.948 41.3542 217.469 41.25 218.156 41.25ZM214 44.7188C210.438 44.7188 206.75 46.6979 202.938 50.6562C201.583 52.0729 200.333 53.7708 199.188 55.75C198.062 57.7292 197.5 59.0833 197.5 59.8125C197.5 60.5417 197.708 60.9062 198.125 60.9062C198.708 60.9062 200.333 59.7604 203 57.4688C205.667 55.1562 207.438 53.4583 208.312 52.375C209.271 51.1667 211.167 48.6146 214 44.7188ZM241.875 24.75L243.156 25.0625C243.344 25.0625 243.51 25.1562 243.656 25.3438C243.802 25.5312 243.875 25.7083 243.875 25.875C243.875 26.0417 243.656 26.4896 243.219 27.2188C242.781 27.9479 242.26 28.7812 241.656 29.7188C241.073 30.6354 240.76 31.1354 240.719 31.2188C242.344 31.0938 243.49 31.0312 244.156 31.0312C244.844 31.0312 245.312 31.0833 245.562 31.1875C245.812 31.2708 246.094 31.5312 246.406 31.9688C246.74 32.3854 247.042 32.7083 247.312 32.9375C247.583 33.1458 247.719 33.4688 247.719 33.9062C247.719 34.3438 247.448 34.7188 246.906 35.0312C246.385 35.3229 245.823 35.5 245.219 35.5625C240.385 36.0417 237.719 36.2917 237.219 36.3125C235.531 38.8958 233.167 42.9271 230.125 48.4062C227.104 53.8646 225.5 57.2812 225.312 58.6562C225.229 59.2812 225.188 59.7917 225.188 60.1875C225.188 61 225.615 61.4062 226.469 61.4062C227.323 61.4062 228.271 61.0833 229.312 60.4375C230.354 59.7708 231.312 59.0521 232.188 58.2812C234.521 56.1979 235.771 55.1562 235.938 55.1562C236.479 55.1562 236.75 56.0938 236.75 57.9688C236.75 58.9896 236.281 59.9062 235.344 60.7188C233.24 62.5312 231.469 63.8958 230.031 64.8125C228.594 65.7292 227.156 66.1875 225.719 66.1875C225.406 66.1875 225.115 66.1562 224.844 66.0938C223.177 65.7812 221.948 65.1771 221.156 64.2812C220.385 63.3646 220 62.1354 220 60.5938C220.021 59.0521 220.479 57.1875 221.375 55C222.292 52.7917 223.438 50.4479 224.812 47.9688C227.062 43.9271 229.312 40.1354 231.562 36.5938L230.375 36.75C227.958 37.0208 226.552 37.1562 226.156 37.1562H225.875C225.271 37.1562 224.688 37.0417 224.125 36.8125C223.562 36.5625 223.281 36.2604 223.281 35.9062C223.281 35.5521 223.427 35.2083 223.719 34.875C224.031 34.5417 224.219 34.2812 224.281 34.0938C224.427 33.6354 224.969 33.125 225.906 32.5625C226.865 32 227.583 31.7083 228.062 31.6875C228.542 31.6458 229 31.6146 229.438 31.5938C229.896 31.5729 230.396 31.5521 230.938 31.5312C231.5 31.5104 231.927 31.4896 232.219 31.4688L235.031 31.3438C236.781 28.7188 237.979 27.0312 238.625 26.2812C239.292 25.5312 239.677 25.125 239.781 25.0625C239.885 24.9792 240.094 24.9375 240.406 24.9375L241.875 24.75ZM255.625 41.625C255.625 43 255.062 44.2083 253.938 45.25C252.833 46.2917 251.573 46.8125 250.156 46.8125C249.698 46.8125 249.396 46.7083 249.25 46.5C249.104 46.2708 249.031 45.9792 249.031 45.625C249.031 45.2708 249.073 44.9271 249.156 44.5938C248.406 44.8438 247.573 45.2292 246.656 45.75C245.74 46.2708 244.615 47.0417 243.281 48.0625C241.948 49.0833 241.281 49.8438 241.281 50.3438C241.281 50.5104 241.521 50.5938 242 50.5938C242.5 50.5938 243.26 50.4271 244.281 50.0938C245.302 49.7396 246.01 49.5625 246.406 49.5625C246.823 49.5625 247.094 49.5833 247.219 49.625C247.49 49.7708 247.781 50.0938 248.094 50.5938C248.406 51.0729 248.562 51.4583 248.562 51.75C248.562 52.0208 248.292 52.3854 247.75 52.8438C247.208 53.3021 246.594 53.6562 245.906 53.9062C245.219 54.1354 244.76 54.3125 244.531 54.4375C240.135 56.8958 237.938 58.5833 237.938 59.5C237.938 61.125 239.323 61.9375 242.094 61.9375C243.865 61.9375 245.646 61.375 247.438 60.25C248.958 59.2917 250.323 58.3229 251.531 57.3438C252.76 56.3438 253.531 55.7292 253.844 55.5C254.177 55.2708 254.427 55.1562 254.594 55.1562C255.135 55.1562 255.406 55.7604 255.406 56.9688C255.406 58.1771 255.333 58.9792 255.188 59.375C255.042 59.75 254.625 60.2188 253.938 60.7812C249.479 64.4062 245.26 66.2188 241.281 66.2188C239.156 66.2188 237.458 65.9271 236.188 65.3438C233.854 64.2812 232.688 62.6562 232.688 60.4688C232.688 57.5938 234.677 55.4167 238.656 53.9375C237.865 53.5833 237.354 53.1354 237.125 52.5938C236.896 52.0312 236.781 51.1458 236.781 49.9375C236.781 48.7083 237.344 47.4167 238.469 46.0625C239.615 44.6875 241.01 43.5625 242.656 42.6875C246.323 40.7083 249.594 39.7188 252.469 39.7188C253.156 39.7188 253.854 39.8854 254.562 40.2188C255.271 40.5521 255.625 41.0208 255.625 41.625Z" fill="white"/>
</g>
<defs>
<filter id="filter0_d_110_672" x="92.2333" y="0.820007" width="64.8267" height="105.18" filterUnits="userSpaceOnUse" color-interpolation-filters="sRGB">
<feFlood flood-opacity="0" result="BackgroundImageFix"/>
<feColorMatrix in="SourceAlpha" type="matrix" values="0 0 0 0 0 0 0 0 0 0 0 0 0 0 0 0 0 0 127 0" result="hardAlpha"/>
<feOffset dy="4"/>
<feGaussianBlur stdDeviation="2"/>
<feComposite in2="hardAlpha" operator="out"/>
<feColorMatrix type="matrix" values="0 0 0 0 0 0 0 0 0 0 0 0 0 0 0 0 0 0 0.25 0"/>
<feBlend mode="normal" in2="BackgroundImageFix" result="effect1_dropShadow_110_672"/>
<feBlend mode="normal" in="SourceGraphic" in2="effect1_dropShadow_110_672" result="shape"/>
</filter>
<filter id="filter1_d_110_672" x="0.9375" y="18.1562" width="258.688" height="71.3125" filterUnits="userSpaceOnUse" color-interpolation-filters="sRGB">
<feFlood flood-opacity="0" result="BackgroundImageFix"/>
<feColorMatrix in="SourceAlpha" type="matrix" values="0 0 0 0 0 0 0 0 0 0 0 0 0 0 0 0 0 0 127 0" result="hardAlpha"/>
<feOffset dy="4"/>
<feGaussianBlur stdDeviation="2"/>
<feComposite in2="hardAlpha" operator="out"/>
<feColorMatrix type="matrix" values="0 0 0 0 0 0 0 0 0 0 0 0 0 0 0 0 0 0 0.25 0"/>
<feBlend mode="normal" in2="BackgroundImageFix" result="effect1_dropShadow_110_672"/>
<feBlend mode="normal" in="SourceGraphic" in2="effect1_dropShadow_110_672" result="shape"/>
</filter>
</defs>
</svg>
